<svg xmlns="http://www.w3.org/2000/svg" width="32" height="32" fill="none" ><path fill="#131313" d="M0 0h32v32H0z"/><g filter="url(#A)"><path d="M8.32 19.42a1.79 1.79 0 0 1 1.8 1.8c0 .98-.8 1.78-1.8 1.78-.98 0-1.78-.8-1.78-1.78 0-1 .8-1.8 1.78-1.8zm0-4.02c-.98 0-1.78-.8-1.78-1.8s.8-1.8 1.78-1.8a1.79 1.79 0 0 1 1.8 1.8 1.79 1.79 0 0 1-1.8 1.8zm12.987-3.54h3.22L20.207 23h-4.64l-4.32-11.14h3.2l3.28 8.44h.3l3.28-8.44z" fill="#f8f8f8"/></g><defs><filter id="A" x="6.54" y="11.8" width="18.987" height="11.2" filterUnits="userSpaceOnUse" color-interpolation-filters="sRGB"><feFlood flood-opacity="0" result="A"/><feColorMatrix in="SourceAlpha" values="0 0 0 0 0 0 0 0 0 0 0 0 0 0 0 0 0 0 127 0" result="B"/><feOffset dx="1"/><feComposite in2="B" operator="out"/><feColorMatrix values="0 0 0 0 0.0470588 0 0 0 0 0.54902 0 0 0 0 0.913725 0 0 0 1 0"/><feBlend in2="A"/><feBlend in="SourceGraphic"/></filter></defs></svg>