<svg xmlns="http://www.w3.org/2000/svg" width="30" height="30" fill="none" xmlns:v="https://vecta.io/nano"><path d="M16.734 14.999l8.789-10.477c.147-.174.023-.439-.204-.439h-2.672c-.157 0-.308.07-.412.191l-7.249 8.642-7.249-8.642c-.1-.121-.251-.191-.412-.191H4.654c-.228 0-.352.265-.204.439l8.789 10.477-8.789 10.477c-.033.039-.054.086-.061.137s.001.102.022.148.056.085.099.113.093.042.144.041h2.672c.157 0 .308-.07.412-.191l7.249-8.642 7.249 8.642c.1.12.251.191.412.191h2.672c.228 0 .352-.264.204-.439l-8.789-10.477z" fill="currentColor"/></svg>