<svg xmlns="http://www.w3.org/2000/svg" width="28" height="29" fill="none" xmlns:v="https://vecta.io/nano"><g clip-path="url(#A)"><path d="M27 3.494H1a1 1 0 0 0-1 1v20a1 1 0 0 0 1 1h26a1 1 0 0 0 1-1v-20a1 1 0 0 0-1-1zm-1.25 19.75H2.25v-1.247l4.328-5.134 4.691 5.563 7.297-8.65 7.184 8.519v.95zm0-4.056l-6.994-8.294c-.1-.119-.281-.119-.381 0l-7.106 8.425-4.5-5.334c-.1-.119-.281-.119-.381 0L2.25 18.891V5.744h23.5v13.444zM7.5 12.744a2.75 2.75 0 0 0 1.945-.806 2.75 2.75 0 0 0 .805-1.945 2.75 2.75 0 0 0-.805-1.945A2.75 2.75 0 0 0 7.5 7.244a2.75 2.75 0 0 0-2.75 2.75 2.75 2.75 0 0 0 2.75 2.75zm0-3.625c.484 0 .875.391.875.875s-.391.875-.875.875-.875-.391-.875-.875.391-.875.875-.875z" fill="#b0b0b0"/></g><defs><clipPath id="A"><path fill="#fff" transform="translate(0 .5)" d="M0 0h28v28H0z"/></clipPath></defs></svg>