<svg xmlns="http://www.w3.org/2000/svg" width="30" height="30" fill="currentColor" xmlns:v="https://vecta.io/nano"><path d="M15 1.875A13.13 13.13 0 0 0 1.875 15 13.13 13.13 0 0 0 15 28.125 13.13 13.13 0 0 0 28.125 15 13.13 13.13 0 0 0 15 1.875zm0 24.023A10.9 10.9 0 0 1 4.102 15 10.9 10.9 0 0 1 15 4.102 10.9 10.9 0 0 1 25.898 15 10.9 10.9 0 0 1 15 25.898zm3.269-16.621C17.39 8.507 16.23 8.085 15 8.085s-2.391.425-3.269 1.192c-.914.8-1.418 1.875-1.418 3.026v.223c0 .129.106.234.234.234h1.406c.129 0 .234-.105.234-.234v-.223c0-1.292 1.263-2.344 2.813-2.344s2.813 1.052 2.813 2.344c0 .911-.645 1.746-1.643 2.13a3.27 3.27 0 0 0-1.526 1.198c-.384.557-.583 1.225-.583 1.901v.63c0 .129.105.234.234.234H15.7c.129 0 .234-.105.234-.234v-.665c.002-.284.089-.562.25-.796a1.42 1.42 0 0 1 .655-.517c1.729-.665 2.845-2.189 2.845-3.882.003-1.151-.501-2.227-1.415-3.026zm-4.441 12.167a1.17 1.17 0 1 0 2.344 0 1.17 1.17 0 1 0-2.344.001z"/></svg>