<svg xmlns="http://www.w3.org/2000/svg" width="30" height="30" fill="none"><g clip-path="url(#a)"><path fill="#00005B" d="M5.313 0h19.375C27.625 0 30 2.436 30 5.449V24.55C30 27.564 27.625 30 24.687 30H5.313C2.376 30 0 27.564 0 24.551V5.45C0 2.436 2.375 0 5.313 0Z"/><path fill="#99F" d="M12.05 17.949H7.4l-.95 3.025a.22.22 0 0 1-.237.18h-2.35c-.138 0-.175-.077-.138-.23L7.75 9.09c.037-.128.075-.244.125-.398.05-.269.075-.551.075-.833-.013-.064.037-.128.1-.141h3.237c.088 0 .15.038.163.103l4.563 13.076c.037.142 0 .206-.126.206h-2.612c-.088.012-.175-.052-.2-.142l-1.025-3.076v.064Zm-3.925-2.552H11.3c-.075-.269-.175-.59-.288-.923a39.414 39.414 0 0 1-.337-1.102c-.125-.398-.238-.782-.363-1.18-.124-.397-.237-.769-.337-1.14-.1-.36-.188-.693-.275-1h-.025a16.06 16.06 0 0 1-.425 1.653c-.188.615-.375 1.256-.575 1.898a20.328 20.328 0 0 1-.55 1.794ZM23.375 16.795h-3.962c.05.397.174.795.387 1.14.225.347.537.616.912.77.5.218 1.05.334 1.6.32a7.331 7.331 0 0 0 1.3-.14 4.598 4.598 0 0 0 1.113-.295c.063-.052.1-.026.1.102v1.962c0 .051-.012.102-.025.154a.295.295 0 0 1-.088.09c-.4.179-.812.307-1.25.384a8.245 8.245 0 0 1-1.774.154c-.95 0-1.75-.154-2.4-.449a4.22 4.22 0 0 1-1.576-1.218c-.4-.5-.687-1.064-.862-1.68a6.698 6.698 0 0 1-.263-1.871c0-.692.1-1.372.313-2.038.2-.641.513-1.231.938-1.757a4.55 4.55 0 0 1 1.512-1.218c.587-.295 1.287-.397 2.087-.397a4.42 4.42 0 0 1 1.938.397c.512.23.962.577 1.313 1.026.325.436.587.923.75 1.461.162.513.237 1.039.237 1.564 0 .308-.012.577-.025.82-.025.244-.037.424-.05.54-.013.09-.088.166-.175.166-.075 0-.213.013-.413.026-.2.025-.437.038-.724.038-.288 0-.588-.051-.913-.051Zm-3.962-1.872h2.637c.325 0 .563 0 .712-.013.1-.013.2-.038.288-.102v-.128c0-.167-.025-.321-.075-.475-.225-.718-.888-1.205-1.625-1.18a1.753 1.753 0 0 0-1.663.975c-.15.295-.237.603-.274.923Z"/></g><defs><clipPath id="a"><path fill="#fff" d="M0 0h30v30H0z"/></clipPath></defs></svg>