<svg xmlns="http://www.w3.org/2000/svg" width="30" height="30" fill="none"><path fill="#FA6803" d="M4.08 5.79C2.711 6.07 1.242 7.161.632 8.36.023 9.557 0 9.85 0 14.89c0 2.69.045 4.905.113 5.25a5.139 5.139 0 0 0 4.056 4.057c.622.113 8.712.17 8.712.045 0-.09-.69-2.802-.723-2.836-.012-.022-1.447-.338-3.187-.712-4.057-.881-3.938-.848-4.271-1.255l-.294-.35v-8.203l.294-.356c.339-.407.214-.373 4.27-1.254l3.188-.713c.034-.023.723-2.736.723-2.82 0-.109-8.26-.057-8.802.055V5.79Zm13.095.016c.011.203.644 2.69.712 2.757.023.034 1.57.384 3.424.78 1.854.395 3.503.796 3.65.88.199.116.366.28.486.475.181.317.204.656.204 4.294 0 3.639-.023 3.977-.204 4.294-.123.193-.29.356-.486.474-.147.08-1.781.474-3.65.881l-3.424.786c-.067.067-.7 2.553-.712 2.757 0 .124.814.146 4.384.112 4.922-.045 4.983-.056 6.237-.904.901-.62 1.582-1.51 1.944-2.542.26-.757.26-.825.26-5.853 0-5.029 0-5.097-.26-5.854a5.16 5.16 0 0 0-1.944-2.542c-1.254-.847-1.31-.859-6.237-.903-3.57-.034-4.384-.017-4.384.112v-.004Zm-5.044 8.954a.816.816 0 0 0-.022.373c.034.187.237.203 2.892.237l2.848.022v-.79h-2.82c-2.362 0-2.848.022-2.893.157l-.005.001Z"/></svg>