<svg xmlns="http://www.w3.org/2000/svg" width="30" height="30" fill="none"><path fill="#E37400" fill-rule="evenodd" d="M9.42 26.94c.167-.405.253-.838.253-1.277a3.337 3.337 0 1 0-6.673 0 3.337 3.337 0 0 0 6.42 1.277ZM11.75 25.337V15a3.395 3.395 0 0 1 3.337-3.336c1.75 0 3.336 1.341 3.336 3.5v10.173c0 2.555-1.75 3.663-3.336 3.663-1.715 0-3.337-1.306-3.337-3.663Z" clip-rule="evenodd"/><path fill="#F9AB00" fill-rule="evenodd" d="M20.5 25.337v-21A3.395 3.395 0 0 1 23.837 1c1.75 0 3.336 1.342 3.336 3.5v20.837c0 2.555-1.75 3.663-3.336 3.663-1.715 0-3.337-1.307-3.337-3.663Z" clip-rule="evenodd"/></svg>