<svg xmlns="http://www.w3.org/2000/svg" width="30" height="30" fill="none"><g clip-path="url(#a)"><path fill="url(#b)" d="M13.693.533.531 13.685a1.804 1.804 0 0 0 0 2.556l13.162 13.151c.708.707 1.851.707 2.559 0l5.518-5.514a1.62 1.62 0 0 0 0-2.293 1.624 1.624 0 0 0-2.294 0l-4.184 4.18a.43.43 0 0 1-.62 0L4.161 15.263a.429.429 0 0 1 0-.62L14.672 4.142a.43.43 0 0 1 .62 0l4.184 4.18a1.624 1.624 0 0 0 2.294 0 1.62 1.62 0 0 0 0-2.293L16.252.514a1.825 1.825 0 0 0-2.559.019Z"/><path fill="url(#c)" d="M13.693.533.531 13.685a1.804 1.804 0 0 0 0 2.556l13.162 13.151c.708.707 1.851.707 2.559 0l5.518-5.514a1.62 1.62 0 0 0 0-2.293 1.624 1.624 0 0 0-2.294 0l-4.184 4.18a.43.43 0 0 1-.62 0L4.161 15.263a.429.429 0 0 1 0-.62L14.672 4.142c.439-.378 1.154-1.144 2.205-1.323.781-.133 1.635.16 2.561.879L16.252.514a1.825 1.825 0 0 0-2.559.019Z"/><path fill="url(#d)" d="M23.044 20.362a1.624 1.624 0 0 0 2.295 0l4.071-4.068a1.804 1.804 0 0 0 0-2.556L25.304 9.65a1.627 1.627 0 0 0-2.297.002 1.62 1.62 0 0 0 0 2.293l2.773 2.771a.429.429 0 0 1 0 .619l-2.736 2.734a1.62 1.62 0 0 0 0 2.293Z"/><path fill="url(#e)" d="M15.038 18.58a3.552 3.552 0 0 0 3.554-3.552 3.552 3.552 0 0 0-3.554-3.55 3.552 3.552 0 0 0-3.554 3.55 3.552 3.552 0 0 0 3.554 3.551Z"/></g><defs><linearGradient id="b" x1="13.815" x2="26.323" y1="0" y2="7.639" gradientUnits="userSpaceOnUse"><stop stop-color="#4285EB"/><stop offset="1" stop-color="#2EC7FF"/></linearGradient><linearGradient id="c" x1="15.493" x2="9.315" y1="0" y2="31.929" gradientUnits="userSpaceOnUse"><stop stop-color="#29CDFF"/><stop offset=".379" stop-color="#148EFF"/><stop offset="1" stop-color="#0A60FF"/></linearGradient><linearGradient id="d" x1="27.695" x2="19.657" y1="7.663" y2="20.234" gradientUnits="userSpaceOnUse"><stop stop-color="#FA816E"/><stop offset=".415" stop-color="#F74A5C"/><stop offset="1" stop-color="#F51D2C"/></linearGradient><linearGradient id="e" x1="16.327" x2="13.652" y1="8.943" y2="19.642" gradientUnits="userSpaceOnUse"><stop stop-color="#FA8E7D"/><stop offset=".513" stop-color="#F74A5C"/><stop offset="1" stop-color="#F51D2C"/></linearGradient><clipPath id="a"><path fill="#fff" d="M0 0h30v30H0z"/></clipPath></defs></svg>