<svg xmlns="http://www.w3.org/2000/svg" width="30" height="30" fill="none"><path fill="#131313" d="M8.362 12.835c0 .387.04.7.108.931.08.23.178.482.316.754.05.083.07.167.07.24 0 .105-.06.21-.188.314l-.622.44a.456.456 0 0 1-.257.094c-.098 0-.197-.052-.296-.146a3.224 3.224 0 0 1-.355-.492 8.284 8.284 0 0 1-.306-.618c-.77.963-1.737 1.445-2.901 1.445-.83 0-1.49-.252-1.974-.754-.483-.502-.73-1.172-.73-2.01 0-.89.296-1.611.898-2.156.602-.544 1.401-.816 2.418-.816.335 0 .68.031 1.046.084.365.052.74.136 1.135.23v-.764c0-.796-.158-1.35-.464-1.675-.316-.324-.849-.481-1.609-.481-.345 0-.7.042-1.066.136a7.54 7.54 0 0 0-1.065.356 2.73 2.73 0 0 1-.346.136.575.575 0 0 1-.158.031c-.138 0-.207-.104-.207-.324v-.513c0-.168.02-.293.07-.366a.746.746 0 0 1 .275-.22c.346-.189.76-.346 1.244-.471a5.66 5.66 0 0 1 1.54-.2c1.174 0 2.032.284 2.585.849.543.565.819 1.423.819 2.574v3.392h.02Zm-4.007 1.59c.326 0 .661-.062 1.017-.188.355-.126.67-.356.937-.67.158-.199.276-.418.336-.67.059-.25.098-.554.098-.91v-.44a7.798 7.798 0 0 0-.908-.178 7.011 7.011 0 0 0-.927-.063c-.661 0-1.145.137-1.47.42-.326.282-.484.68-.484 1.203 0 .492.118.858.365 1.11.237.26.582.386 1.036.386Zm7.924 1.13c-.177 0-.296-.03-.375-.104-.079-.063-.148-.21-.207-.408l-2.319-8.09c-.06-.21-.089-.346-.089-.42 0-.167.08-.26.237-.26h.967c.188 0 .316.03.385.104.08.063.138.21.197.408l1.658 6.929 1.54-6.929c.05-.21.108-.345.187-.408.08-.063.217-.105.395-.105h.79c.187 0 .315.032.394.105.08.063.148.21.188.408l1.559 7.012 1.707-7.012c.06-.21.129-.345.198-.408.079-.063.207-.105.385-.105h.917c.158 0 .247.084.247.262 0 .052-.01.104-.02.167-.01.063-.03.147-.069.262l-2.378 8.09c-.06.21-.128.346-.207.409a.605.605 0 0 1-.375.104h-.85c-.187 0-.315-.031-.394-.104-.079-.074-.148-.21-.187-.419l-1.53-6.75-1.52 6.74c-.049.209-.108.345-.187.418-.08.073-.217.105-.395.105h-.849Zm12.681.283a6.175 6.175 0 0 1-1.52-.188c-.493-.126-.878-.262-1.134-.419-.158-.094-.267-.198-.306-.293a.778.778 0 0 1-.06-.293v-.534c0-.22.08-.324.228-.324.059 0 .118.01.177.031.06.021.148.063.247.105.335.157.7.283 1.085.366.395.084.78.126 1.175.126.622 0 1.105-.115 1.44-.345.336-.23.514-.566.514-.995 0-.293-.09-.534-.267-.732-.177-.2-.513-.377-.996-.545l-1.431-.47c-.72-.241-1.254-.597-1.58-1.068a2.592 2.592 0 0 1-.493-1.518c0-.44.09-.827.267-1.162.177-.335.414-.628.71-.858.296-.24.632-.418 1.027-.544.394-.126.809-.178 1.243-.178.217 0 .444.01.661.042.227.031.434.073.642.115.197.052.385.105.562.167.178.063.316.126.415.189a.868.868 0 0 1 .296.262.59.59 0 0 1 .089.345v.492c0 .22-.08.335-.227.335-.08 0-.208-.042-.375-.126-.563-.272-1.195-.408-1.895-.408-.563 0-1.007.094-1.313.293-.306.199-.463.502-.463.932 0 .293.098.544.296.743.197.199.562.397 1.085.575l1.401.471c.71.241 1.224.576 1.53 1.005.306.43.454.921.454 1.465 0 .45-.089.859-.257 1.214-.177.356-.414.67-.72.921-.306.262-.671.45-1.095.587-.445.146-.908.22-1.412.22Z"/><path fill="#F90" fill-rule="evenodd" d="M26.826 20.925c-3.247 2.543-7.964 3.893-12.02 3.893C9.122 24.819 4 22.59.13 18.884c-.305-.293-.03-.69.336-.46 4.184 2.574 9.345 4.134 14.684 4.134 3.602 0 7.56-.796 11.2-2.428.544-.262 1.007.376.475.795Z" clip-rule="evenodd"/><path fill="#F90" fill-rule="evenodd" d="M28.177 19.292c-.414-.565-2.743-.272-3.799-.136-.316.042-.365-.25-.079-.47 1.855-1.382 4.905-.985 5.26-.524.355.47-.099 3.705-1.835 5.254-.267.24-.523.115-.405-.199.395-1.036 1.273-3.37.858-3.925Z" clip-rule="evenodd"/></svg>