<svg xmlns="http://www.w3.org/2000/svg" width="30" height="30" fill="none"><path fill="#674199" fill-rule="evenodd" d="M7.75 1A6.75 6.75 0 0 0 1 7.75v13.5A6.75 6.75 0 0 0 7.75 28h13.5A6.75 6.75 0 0 0 28 21.25V7.75A6.75 6.75 0 0 0 21.25 1H7.75Zm1.789 20.25h5.864c3.044 0 4.873-1.532 4.873-4.043 0-1.86-1.284-3.234-3.213-3.433v-.168c1.404-.237 2.501-1.57 2.501-3.065 0-2.194-1.611-3.56-4.29-3.56H9.54V21.25Zm2.215-8.227V8.86h3.004c1.642 0 2.602.772 2.602 2.088 0 1.353-1.019 2.075-2.976 2.075h-2.63Zm0 6.349h3.203c1.998 0 3.055-.81 3.055-2.324 0-1.493-1.097-2.275-3.183-2.275h-3.075v4.599Z" clip-rule="evenodd"/></svg>