<svg xmlns="http://www.w3.org/2000/svg" width="30" height="30" fill="none"><path fill="#0080FF" d="M15.002 29v-5.43c5.747 0 10.208-5.699 8.001-11.747a8.13 8.13 0 0 0-4.842-4.826C12.113 4.807 6.413 9.25 6.413 14.998H1C1 5.838 9.858-1.306 19.463 1.695c4.191 1.317 7.54 4.651 8.842 8.842C31.305 20.142 24.162 29 15.002 29Z"/><path fill="#0080FF" fill-rule="evenodd" d="M15.018 23.602H9.604V18.19h5.414v5.413ZM9.604 27.746H5.461v-4.144h4.143v4.144Z" clip-rule="evenodd"/><path fill="#0080FF" fill-rule="evenodd" d="M5.46 23.602H1.985v-3.476h3.477v3.476Z" clip-rule="evenodd"/></svg>