<svg xmlns="http://www.w3.org/2000/svg" width="30" height="30" fill="none"><path fill="#005A25" d="M13.87 1h4.579v21.193c-2.349.446-4.073.625-5.946.625C6.913 22.818 4 20.29 4 15.444c0-4.668 3.092-7.7 7.879-7.7.743 0 1.308.06 1.991.238V1Zm0 10.667a4.542 4.542 0 0 0-1.545-.238c-2.32 0-3.657 1.427-3.657 3.925 0 2.439 1.279 3.776 3.627 3.776.505 0 .922-.03 1.575-.12v-7.344.001ZM25.734 8.07v10.614c0 3.656-.268 5.411-1.07 6.927-.744 1.457-1.725 2.379-3.747 3.389l-4.251-2.022c2.022-.95 3.003-1.784 3.627-3.063.655-1.307.862-2.824.862-6.807V8.069h4.579v.001Zm-4.579-7.046h4.579v4.698h-4.579V1.024Z"/></svg>