<svg xmlns="http://www.w3.org/2000/svg" width="30" height="30" fill="none"><path fill="#006EB4" d="M28.506 13.02c-.077-.061-.773-.572-2.267-.572a7.447 7.447 0 0 0-1.172.1c-.284-1.906-1.92-2.827-1.984-2.88l-.4-.224-.257.362a5.225 5.225 0 0 0-.709 1.594c-.271 1.083-.103 2.104.464 2.976-.683.373-1.79.46-2.022.47H1.866a.891.891 0 0 0-.613.247.833.833 0 0 0-.251.593 12.23 12.23 0 0 0 .8 4.545c.631 1.594 1.571 2.78 2.78 3.5C5.95 24.538 8.179 25 10.691 25c1.136 0 2.27-.1 3.387-.299a14.294 14.294 0 0 0 4.432-1.556 12.047 12.047 0 0 0 3.015-2.39c1.455-1.582 2.318-3.351 2.95-4.922h.257c1.585 0 2.564-.61 3.105-1.133.36-.328.64-.727.825-1.17l.116-.324-.272-.185Z"/><path fill="#006EB4" d="M3.441 13.889h2.473a.22.22 0 0 0 .155-.063.215.215 0 0 0 .064-.153v-2.19a.215.215 0 0 0-.064-.152.22.22 0 0 0-.155-.064H3.44a.22.22 0 0 0-.155.064.215.215 0 0 0-.064.152v2.187a.23.23 0 0 0 .22.216v.003Zm3.41 0h2.473a.22.22 0 0 0 .155-.063.215.215 0 0 0 .064-.153v-2.19a.215.215 0 0 0-.064-.152.22.22 0 0 0-.155-.064H6.85a.22.22 0 0 0-.155.064.215.215 0 0 0-.064.152v2.187c.002.057.026.11.066.151a.23.23 0 0 0 .153.066v.002Zm3.474 0h2.472a.22.22 0 0 0 .155-.063.215.215 0 0 0 .064-.153v-2.19a.215.215 0 0 0-.064-.152.221.221 0 0 0-.155-.064h-2.472a.221.221 0 0 0-.155.064.215.215 0 0 0-.064.152v2.187a.206.206 0 0 0 .062.156.214.214 0 0 0 .157.06v.003Zm3.424 0h2.472a.22.22 0 0 0 .155-.063.215.215 0 0 0 .064-.153v-2.19a.215.215 0 0 0-.064-.152.221.221 0 0 0-.155-.064h-2.473a.221.221 0 0 0-.154.064.215.215 0 0 0-.065.152v2.187c0 .058.023.113.065.153.04.04.096.064.155.064v.002ZM6.85 10.763h2.473a.23.23 0 0 0 .152-.066.224.224 0 0 0 .067-.15v-2.19a.215.215 0 0 0-.064-.152.22.22 0 0 0-.155-.064H6.85a.22.22 0 0 0-.155.064.215.215 0 0 0-.064.153v2.187a.233.233 0 0 0 .069.148c.04.04.093.064.15.068v.002Zm3.474 0h2.472a.23.23 0 0 0 .153-.066.223.223 0 0 0 .066-.15v-2.19a.215.215 0 0 0-.064-.152.22.22 0 0 0-.155-.064h-2.472a.22.22 0 0 0-.155.064.215.215 0 0 0-.064.153v2.187c0 .057.023.112.064.153a.22.22 0 0 0 .155.063v.002Zm3.424 0h2.472a.23.23 0 0 0 .153-.066.223.223 0 0 0 .067-.15v-2.19a.223.223 0 0 0-.067-.15.23.23 0 0 0-.153-.066h-2.473a.22.22 0 0 0-.154.064.215.215 0 0 0-.065.153v2.187c.002.056.026.11.067.15a.23.23 0 0 0 .152.066v.002Zm0-3.139h2.472a.22.22 0 0 0 .155-.063.215.215 0 0 0 .064-.153V5.216a.223.223 0 0 0-.066-.15A.23.23 0 0 0 16.22 5h-2.473a.22.22 0 0 0-.154.063.215.215 0 0 0-.065.153v2.187c.003.057.026.11.067.15a.23.23 0 0 0 .152.067v.004Zm3.448 6.265h2.473a.22.22 0 0 0 .155-.063.215.215 0 0 0 .064-.153v-2.19a.215.215 0 0 0-.064-.152.22.22 0 0 0-.155-.064h-2.473a.221.221 0 0 0-.155.064.215.215 0 0 0-.064.152v2.187c.002.057.026.11.066.151a.23.23 0 0 0 .153.066"/></svg>