<svg xmlns="http://www.w3.org/2000/svg" width="30" height="30" fill="#b0b0b0" xmlns:v="https://vecta.io/nano"><path d="M29 22.812a1.78 1.78 0 0 1-1.265-.001c-.407-.155-.744-.454-.946-.84l-4.017-5.566-.584-.779-4.671 6.352c-.191.369-.509.656-.896.808a1.71 1.71 0 0 1-1.206.017l6.017-8.073-5.597-7.294a1.86 1.86 0 0 1 2.218.778l4.172 5.636 4.196-5.613c.192-.363.51-.643.895-.787a1.67 1.67 0 0 1 1.191.008l-2.172 2.88-2.942 3.83a.78.78 0 0 0 0 1.16L29 22.812h0zM1 14.63l.49-2.421c1.347-4.788 6.835-6.78 10.61-3.814 2.211 1.736 2.763 4.196 2.654 6.967H2.3c-.202 4.951 3.371 7.94 7.94 6.415a4.74 4.74 0 0 0 3.012-3.355c.241-.779.631-.911 1.37-.685a6.32 6.32 0 0 1-3.02 4.616 7.31 7.31 0 0 1-4.439.838 7.32 7.32 0 0 1-4.085-1.928 7.67 7.67 0 0 1-1.915-4.499c0-.265-.101-.529-.156-.779L1 14.63zm1.316-.335H13.58c-.07-3.589-2.335-6.134-5.356-6.158-3.363-.047-5.768 2.444-5.916 6.142l.008.016z"/></svg>