<svg xmlns="http://www.w3.org/2000/svg" width="30" height="30" fill="none"><path fill="#4F4F4F" d="M29 22.812a1.782 1.782 0 0 1-2.21-.84c-1.27-1.9-2.67-3.714-4.017-5.567l-.584-.778c-1.604 2.148-3.207 4.211-4.67 6.352a1.713 1.713 0 0 1-2.102.825l6.017-8.072-5.597-7.295a1.86 1.86 0 0 1 2.218.779c1.3 1.9 2.74 3.713 4.173 5.636 1.44-1.907 2.864-3.729 4.195-5.613a1.674 1.674 0 0 1 2.087-.778l-2.172 2.88c-.973 1.285-1.93 2.577-2.943 3.83a.778.778 0 0 0 0 1.16c1.86 2.468 3.706 4.943 5.605 7.481ZM1 14.63c.163-.778.265-1.627.49-2.42C2.837 7.421 8.325 5.428 12.1 8.394c2.211 1.736 2.764 4.196 2.655 6.967H2.3c-.202 4.951 3.37 7.94 7.94 6.415a4.74 4.74 0 0 0 3.012-3.355c.242-.779.631-.911 1.37-.686a6.322 6.322 0 0 1-3.02 4.617 7.316 7.316 0 0 1-8.524-1.09 7.668 7.668 0 0 1-1.915-4.5c0-.264-.1-.529-.155-.778A120.6 120.6 0 0 1 1 14.63Zm1.316-.334h11.263c-.07-3.59-2.335-6.135-5.355-6.158-3.363-.047-5.768 2.444-5.916 6.142l.008.016Z"/></svg>