<svg xmlns="http://www.w3.org/2000/svg" width="30" height="30" fill="none"><path fill="#FFC24A" d="m4.073 24.215.182-.254 8.591-16.302.018-.172L9.077.373c-.317-.596-1.21-.445-1.315.222l-3.689 23.62Z"/><path fill="#FFA712" d="m4.18 24.021.138-.268 8.501-16.13L9.041.48C8.727-.11 7.931.04 7.827.7L4.181 24.022Z"/><g filter="url(#a)"><path fill="#FCA611" d="m4.18 24.021.138-.268 8.501-16.13L9.041.48C8.727-.11 7.931.04 7.827.7L4.181 24.022Z"/></g><path fill="#F4BD62" d="m15.625 12.867 2.82-2.887-2.82-5.385c-.268-.51-1.016-.511-1.28 0l-1.508 2.874v.245l2.788 5.153Z"/><path fill="#FFA50E" d="m15.575 12.747 2.741-2.808-2.741-5.22c-.26-.495-.893-.547-1.15-.05L12.91 7.587l-.046.15 2.71 5.01Z"/><g filter="url(#b)"><path fill="#FCA611" d="m15.575 12.747 2.741-2.808-2.741-5.22c-.26-.495-.893-.547-1.15-.05L12.91 7.587l-.046.15 2.71 5.01Z"/></g><path fill="#F6820C" d="m4.073 24.215.083-.083.299-.121 10.993-10.953.14-.379-2.743-5.226-8.772 16.762Z"/><path fill="#FDE068" d="m15.977 29.739 9.95-5.55-2.842-17.497a.68.68 0 0 0-1.152-.371L4.073 24.215l9.893 5.523c.625.35 1.386.35 2.011 0Z"/><path fill="#FCCA3F" d="m25.837 24.143-2.82-17.365c-.087-.543-.646-.768-1.035-.378L4.184 24.18l9.783 5.468c.62.347 1.376.347 1.997 0l9.873-5.506Z"/><path fill="#EEAB37" d="M15.977 29.575a2.064 2.064 0 0 1-2.011 0L4.152 24.13l-.08.084 9.893 5.523c.625.35 1.386.35 2.011 0l9.95-5.548-.025-.15-9.925 5.535Z"/><defs><filter id="a" width="8.639" height="23.91" x="4.181" y=".111" color-interpolation-filters="sRGB" filterUnits="userSpaceOnUse"><feFlood flood-opacity="0" result="BackgroundImageFix"/><feBlend in="SourceGraphic" in2="BackgroundImageFix" result="shape"/><feColorMatrix in="SourceAlpha" result="hardAlpha" values="0 0 0 0 0 0 0 0 0 0 0 0 0 0 0 0 0 0 127 0"/><feOffset/><feGaussianBlur stdDeviation="17.5"/><feComposite in2="hardAlpha" k2="-1" k3="1" operator="arithmetic"/><feColorMatrix values="0 0 0 0 0 0 0 0 0 0 0 0 0 0 0 0 0 0 0.06 0"/><feBlend in2="shape" result="effect1_innerShadow_12_304"/></filter><filter id="b" width="6.452" height="15.426" x="12.864" y="-2.679" color-interpolation-filters="sRGB" filterUnits="userSpaceOnUse"><feFlood flood-opacity="0" result="BackgroundImageFix"/><feBlend in="SourceGraphic" in2="BackgroundImageFix" result="shape"/><feColorMatrix in="SourceAlpha" result="hardAlpha" values="0 0 0 0 0 0 0 0 0 0 0 0 0 0 0 0 0 0 127 0"/><feOffset dx="1" dy="-9"/><feGaussianBlur stdDeviation="3.5"/><feComposite in2="hardAlpha" k2="-1" k3="1" operator="arithmetic"/><feColorMatrix values="0 0 0 0 0 0 0 0 0 0 0 0 0 0 0 0 0 0 0.09 0"/><feBlend in2="shape" result="effect1_innerShadow_12_304"/></filter></defs></svg>