<svg xmlns="http://www.w3.org/2000/svg" width="30" height="30" fill="none" xmlns:v="https://vecta.io/nano"><g clip-path="url(#A)"><path d="M8.965 25.193c-1.144-.9-2.362-1.761-3.195-2.974-1.753-2.14-3.103-4.617-4.026-7.222-.558-1.693-.75-3.509-1.468-5.137-.752-1.181.129-2.475 1.425-2.85.577-.111 1.59-.656.366-.266-1.097.804-1.203-.731-.078-.829.769-.103 1.05-.731.787-1.296-.825-.538 1.999-1.128.578-1.931-1.479-1.594 2.07-1.901 1.194-.088-.208 1.393 2.481-.257 1.856 1.354.635.773 2.376.176 2.332 1.261.924.064 1.241.841 2.109.9.9.406 2.528.726 2.834 1.739-.891.706-2.956-1.458-3.056.497.27 2.888.201 5.861 1.256 8.611.5 1.664 1.711 2.975 2.803 4.271 1.047 1.269 2.466 2.164 3.909 2.916 1.267.598 2.634.994 4.015 1.243.56-.428 1.55-2.021 2.422-1.35.042.756-1.734 1.579-.084 1.495.97-.293 1.642.75 2.44-.191.736.872 3.056-.556 2.534 1.224-.708.457-1.74.181-2.449.809-1.169-.584-2.1.522-3.394.383-1.437.258-2.899.361-4.356.363-2.391-.187-4.831-.268-7.104-1.101-1.282-.372-2.531-1.102-3.656-1.832h.004zm2.018.875c1.251.54 2.475 1.11 3.844 1.282 2.175.302 4.42.769 6.603.343-.988-.446-2.009.173-2.993-.319-1.181.253-2.438-.066-3.656-.222-1.364-.607-2.837-1.026-4.114-1.815-1.597-.583.825.748 1.256.856.998.566-1.097-.281-1.393-.525-.836-.469-.942-.371-.082.105l.525.294h.011zm-2.381-1.682c1.212.45-.006-.853-.56-.778-.246-.427-.94-.697-.45-.925-.881.306-.922-1.163-1.336-.953-.932-.294-.363-1.337-1.472-1.978-.101-.675-1.102-1.259-1.421-2.276-.141-.521-1.132-2.016-.523-.624.518 1.341 1.429 2.487 2.188 3.633.589 1.091 1.284 2.231 2.357 2.913.362.347.711.878 1.221.987l-.004.002zm-3.491-3.834c.042-.183.221.396 0 0h0zm4.943 4.372c.268-.12-.386-.152 0 0h0zm.656.24c-.068-.331-.3.186 0 0h0zm.825.343c.392-.373-.605-.234 0 0h0zm1.412.788c.238-.352-.762-.131 0 0h0zm-2.709-1.889c.609-.394-.787-.006 0 0h0zm.619.309c-.019-.208-.22.094 0 0h0zm3.087 1.927c.497.313 2.899.686 1.395.128-.253.053-2.789-.718-1.395-.128zm-4.901-3.817c-.047-.208-.771-.231 0 0h0zm1.437.838c.375-.263-.776-.202 0 0h0zm1.219.75c.537-.203-.87-.203 0 0h0zm-3.243-2.227c.581.446 2.349.056.891-.266-.663-.353-2.156-.595-1.138.213l.247.053h.001zm4.05 2.472c.244-.413-1.018-.236 0 0h0zm-1.231-.978c1.425.403-1.197-.9-.351-.15l.188.084.164.064v.002zm2.468 1.425c1.35.013-1.219-.187 0 0h0zm-5.806-3.7c-.053-.251-.333.021 0 0h0zm8.088 4.98c.036-.454-.441.337 0 0h0zm-5.784-3.572c-.082-.239-.422-.009 0 0h0zm-2.175-1.566c.774-.047-1.059-.341 0 0h0zM5.49 19.584c-.097-.371-.842-.668 0 0h0zm6.761 4.291c-.141-.162-.066.035 0 0h0zm4.208 2.583c-.013-.248-.229.094 0 0h0zm-4.58-2.967c.075-.319-.661-.096 0 0h0zm-3.135-1.988c.577-.061-.923-.389 0 0h0zm5.303 3.295c.898-.356-.875-.173 0 0h0zm-2.758-1.872c1.034.133-1.231-.703-.228-.075l.228.075zm3.595 2.211c.966-.577.647 1.353 1.639.163.978-.714-.844.883.36.128.872-.583 2.159.277 2.972.556.585-.028 1.153.506 1.753.181 1.153-.311-2.258-.461-1.363-1.012-1.056.308-1.836-.366-2.356-1.043-1.185-.274-2.554-.879-3.145-1.927-.241-.394.347.056-.208-.588-.713-.635-1.069-1.356-1.549-2.128-.572-.305-.64-1.204-.697-.03.005-.741-.691-1.24-.863-1.033-.003-.712.745-.356.221-.883-.113-.741-.484-1.509-.594-2.346-.173-.403-.024-1.266-.591-.354-.206.963-.068-1.183.253-.476.422-.722-.152-.637-.174-.537.275-.609.174-1.474-.072-1.144.146-.647.232-2.377-.218-2.07.272-.675.518-3.091-.667-2.17-.48.007-1.311.174-1.703.369 1.231.679-.124.246-.626.137-.066.628-.562.356-1.181.363.992.122-.483 1.012-1.05.668-.739.352.638 1.234.014 1.507.077.41-1.132-.148-1.037.801-.716-.302-.098 1.125.261.642 1.219.33.858 1.082.889 1.797-.199.416-.981-.979-.174-.914-.638-1.034-.703-.375-1.233.107-.122.035 1.35.684.426 1.003.813.126.836.837 1.001 1.286.487.509.387-.562.972.05-.37-.544-1.959-1.535-.68-1.219-.007-.547-.232-.99.161-.98.389-.703-.407 1.734.469.84.242-.106.303-.703.738.056.632.623.229 1.073-.664.503.159.542 1.193.735.998 1.581.206.745.494.471.745.428.187.724.309.191.319-.153.902.193.69.727.973 1.099.622.281-.891-1.901.178-.656 1.122 1.012.422 1.437-.586 1.275.637-.052.844.863 1.641.83.727.347 1.219 1.675-.034 1.121-.434-.392-1.974-.876-.716-.131 1.161.538 2.083.859 3.202 1.535.801.563 1.147 1.226 1.45 1.357-.673.322-2.029-.257-1.031-.434-.628-.114-1.335-.431-.733.351.512.427 1.812.383 2.046.431-.197.435-.537.469.008.503-.607.324.195.375.251.56l.008.003zm-1.243-3.51c-.37-.387-.466-1.111-.066-.481.206.082.656 1.184.066.481zm4.05 2.56c.231-.015.007.175 0 0h0zm-4.631-3.52c-.015-.585.133.45 0 0h0zm-.403-.541c-.466-.9.586.253 0 0h0zm-4.877-3.375c.274-.073.135.467 0 0h0zm3.881 2.104c.169-.631.188.529 0 0h0zm-2.742-1.907c-.193-.347.403.326 0 0h0zm2.353.754c-.441-.987.313-.539.098.161l-.098-.161zm-4.058-2.706c-.187-.324-.522-1.275-.417-1.566.094.473 1.005 2.034.446.656-.617-1.162.738.377.878.668.066.288-.381-.079-.079.598-.551-.771-.325.426-.827-.347l-.001-.009zm-1.253-.864c.052-.754.287.516 0 0h0zm.564.195c.269-.568.456.792 0 0h0zm-1.369-1.031c-.467-.464-.804-.891.022-.288.319.012-.708-.972.077-.313.825.15.407 1.353-.098.6l-.001.001zm.713-.019c.272-.269.144.264 0 0h0zm.439.141c-.412-.771.499.323 0 0h0zm-.872-.832c-1.357-1.209 1.706.631.221.225l-.221-.225zm3.889 2.259c-.588-.352-.157-2.479.044-1.025.572-.185-.032.752.394.743-.066.591-.258.803-.438.281v.001zm1.438.85c.056-.641.122.439 0 0h0zm-.249-.247c.066-.274.006.322 0 0h0zm-4.802-3.26c-.872-1.203 2.534 1.217.559.305-.206-.054-.455-.073-.559-.305zm2.77 1.468c-.082-1.012.184.169 0 0h0zm2.103 1.35c.162-.576.012.382 0 0h0zm-4.739-3.277c.518-.111 2.156.909.652.291-.166-.184-.521-.1-.652-.291zm4.449 2.218c.056-1.036.309-.619.002.15l-.002-.15zm-4.064-2.578c.212-.309-.561-1.4.111-.391.281.231.841.386.356.484.764.675-.187.183-.466-.094l-.001.001zm3.844 2.256c.145-1.181.128.691 0 0h0zM5.79 10.279c.161-.069.084.216 0 0h0zm1.003.597c.258-.542.476.604 0 0h0zm2.828 1.573c-.002-.206.053.303 0 0h0zm-.164-.362c-.392-.968.375.513 0 0h0zm-.241-.636c-.066-.4.225.503 0 0h0zm.392-.637c-.27-.474.34-2.091.409-1.088-.284.782-.082 1.219.115.169.366-.825-.079 1.628-.525.919h.001zm.403-2.406c.117-.144.026.173 0 0h0zm-.674 13.267c-.159-.141.021.088 0 0h0zm1.387.701c.772.199.769-.12.07-.216-.375-.349-1.558-.719-.499-.043.069.188.291.173.428.258v.001zm-2.737-1.819c.425.319 1.6.898.606.122.336-.39-.642-.598-.319-.859-.825-.506-.652-.469-.073-.443-.992-.443.143-.41.09-.637-.382-.075-1.899-.675-1.007.049-.907-.462-.216.172-.49.106-.937-.253.825.707-.147.469.532.422 1.433 1.081.225.446-.159.229.864.576 1.125.75l-.009-.002zm1.45.834c1.762.568-.865-.694 0 0h0zm7.425 4.498c.023-.351-.241.3 0 0h0zm.763.322c.407-.394.017.628.675-.097.007-.518-.019-.825-.756-.195-.203.112-.293.591.082.291l-.001.001zM5.511 18.6c-.125-.491-.876-.489 0 0h0zm.816.534c-.303-.502-1.08-.455 0 0h0zm4.637 2.797c.453.403 2.079.295.549.05-.225-.335-1.437-.253-.549-.05zm6.373 3.938c.697-.585-.675.261 0 0h0zm1.449.996c.005-.187-.3.081 0 0h0zm.003-.262c.772-.816-.747.047 0 0h0zm-15.282-9.68c-.656-.937-.409-1.359-1.042-2.125-.12-.586-1.088-1.915-.501-.506.538.825.697 2.1 1.543 2.634v-.003zm15.038 9.418c1.42-.917-.581-.399 0 0h0zm1.084.425c.712-.609-.45-.128 0 0h0zM5.269 17.564c.203-.303-.525-.039 0 0h0zm14.133 8.911c.688-.443-.159-.375-.125.04l.125-.04zm-9.339-5.888c-.023-.3-.364.025 0 0h0zm.577.332c-.184-.371-.281.058 0 0h0zm9.867 5.855c.881-.637-.534-.122-.185.122l.185-.122zm-.338-.163c.719-.602-.759.266 0 0h0zm1.725 1.148c.482-.322-.586-.103 0 0h0zM5.712 17.344c.647.144 2.583 1.592 1.441.1-.585-.173-.234-1.603-.832-1.35.4.669.328.954-.512.532-1.057-.516-.593.255-.387.469-.281.066.372.244.291.249l-.001-.001zm-2.944-2.325c.115-.478-1.066-2.634-.558-1.08.183.325.164.942.558 1.08h0zm5.406 3.333c-.334-.279-.016-.039 0 0h0zm.819.191c0-.506-.906-.206 0 0h0zm7.103 4.477c-.136-.347-.534-.008 0 0h0zm.341.249c-.051-.194-.187.038 0 0h0zm2.815 1.774c.272-.2-.337-.026 0 0h0zM4.238 15.396c.774-.3-.83-.214 0 0h0zm11.231 7.076c-.009-.502-.494.125 0 0h0zM3.931 14.681c.497-.169-.459-.111 0 0h0zm1.444.699c-.009-.165-.153.063 0 0h0zm17.614 10.8c.639-.129 2.098.325 2.334-.169-.778-.019-2.688-.549-2.778.126l.169.028.275.017v-.002zM5.834 15.497c.011-.508-.396-.019 0 0h0zm-3.797-2.634c-.172-.968-.656-.146 0 0h0zm.905.228c.011-.311-.829-.279 0 0h0zm.518.253c-.15-.122-.116.153 0 0h0zm3.256 2.088c.154-.141-.363-.103 0 0h0zm-3.6-2.662c-.088-.731-1.05-.11 0 0h0zm-1.856-1.205c-.026-.338-.181.127 0 0h0zm.277-.208c-.045-.4-.237.051 0 0h0zm1.525.909c.645-.253-1.175-.525-.131-.047l.131.047zm20.417 12.616c.413-.379-.525-.117 0 0h0zm2.466 1.278c.166-.487-.417.066 0 0h0zM3.216 11.47c.068-.473-.512.094 0 0h0zm-2.171-1.453C.93 9.347.947 8.175 2.061 8.571c-1.488.296 1.031 1.851.712.623.626.031 1.224-.37.895.237 1.235-.134 2.088-1.205 3.28-1.054.938-.124 1.943-.216 2.944-.591.822-.059 1.612-.944 1.162-1.469-1.121-.094-2.295.045-3.534.292-1.373.285-2.62.828-4.006 1.059-1.35.182.272.5-.115.572-.703.244.841.409-.091.668-.576-.11-1.175-.307-.928-.914-1.294.169-2.431.705-1.408 2.021l.075.001-.003.001zm3.12-1.58c.303-1.117 1.625.919.497.15-.134-.101-.356-.183-.497-.15zm.059-.542c.438-.325.232.183 0 0h0zm.556.009c.04-.514 1.273.281.203.185l-.203-.185zm.759-.306c.278-.325.081.288 0 0h0zm.195-.131c.463-.556 2.618-.356 1.031-.054-.422-.319-.747.188-1.031.054zm2.813-.434c-.069-1.519 1.399.539 0 0h0zm.799-.005c.291-.765 1.134-.308.136-.154.022.082-.03.396-.136.154zm-6.443 4.057c.872-.534-.925-.463 0 0h0zm.645.188c.306-.325-.656-.131 0 0h0zM1.647 9.909c.497-.384-.591-.145 0 0h0zM27.4 26.02c.014-.444-.381.2 0 0h0zm-2.616-1.786c.075-.511-.338.044 0 0h0zm3.337 1.959c.697.003 2.111-.216.595-.216-.238.037-1.388.028-.595.216zM4.116 10.943c.564-.037.881-.622-.11-.589-1.537-.159 1.356.527-.187.33-.208.138.294.296.307.258h-.009zm.497.251c-.059-.362-.174.192 0 0h0zm.591-1.571c.244-.304-.337-.082 0 0h0zM3.328 6.488c1.007-.342 2.383-.727 2.859.169-.484-.581-.195-1.155.263-.304.647.861.969-.392.549-.681.478.594 1.022.876.321.037.764-.919-1.528.12-2.049.11-.25.112-2.587.596-1.941.668h-.002zm.591-1.13c.574-.433 1.986.258 1.08-.431-.089-.078-1.983.522-1.08.431zm2.093.086c.671.017-.291-.903.51-.486-.131-.429-.932-.509-1.324-.682-.221.392.45 1.172.813 1.167h.001zM4.286 3.546c.232-.315-.408.159 0 0h0zm.851.204c1.083-.143-.276-.466-.218-.011l.218.011zM3.54 2.503c-.762-.996 1.434.167.659-.875-.652-.518-1.278.585-.659.875h0zm9.782 5.269c.35-.619-1.444-.834-.234-.219.111.037.086.263.234.219z" fill="#f8f8f8"/></g><defs><clipPath id="A"><path fill="#fff" d="M0 0h30v30H0z"/></clipPath></defs></svg>