<svg xmlns="http://www.w3.org/2000/svg" width="30" height="30" fill="none"><g clip-path="url(#a)"><path fill="#131313" d="M8.965 25.193c-1.143-.9-2.362-1.76-3.195-2.973-1.753-2.14-3.103-4.617-4.025-7.222-.558-1.693-.75-3.509-1.468-5.137-.752-1.182.129-2.475 1.425-2.85.576-.111 1.59-.657.365-.267-1.097.805-1.203-.73-.078-.828.77-.104 1.05-.732.788-1.296-.825-.538 1.999-1.128.577-1.931C1.875 1.095 5.424.788 4.55 2.6c-.208 1.393 2.48-.257 1.856 1.353.635.774 2.376.177 2.332 1.261.924.064 1.24.841 2.109.9.9.406 2.528.726 2.834 1.74-.89.705-2.956-1.458-3.056.496.27 2.888.2 5.861 1.256 8.611.5 1.664 1.71 2.975 2.803 4.271 1.047 1.27 2.466 2.164 3.91 2.916 1.267.598 2.634.994 4.015 1.243.56-.428 1.55-2.021 2.422-1.35.043.756-1.734 1.579-.084 1.495.97-.292 1.642.75 2.44-.19.736.871 3.056-.557 2.534 1.224-.708.456-1.74.18-2.448.809-1.17-.584-2.1.522-3.394.382-1.437.258-2.899.361-4.356.363-2.39-.188-4.83-.268-7.104-1.1-1.282-.373-2.531-1.102-3.656-1.832h.003Zm2.019.875c1.25.54 2.475 1.11 3.844 1.283 2.175.302 4.42.768 6.602.343-.988-.447-2.009.173-2.993-.319-1.181.253-2.438-.066-3.656-.222-1.364-.608-2.837-1.026-4.114-1.815-1.597-.583.825.748 1.256.856.998.566-1.097-.281-1.393-.525-.836-.469-.942-.372-.082.105l.524.294h.012Zm-2.381-1.682c1.212.45-.006-.853-.56-.778-.246-.426-.94-.696-.45-.925-.881.305-.923-1.163-1.336-.953-.932-.294-.363-1.337-1.472-1.978-.101-.675-1.102-1.259-1.421-2.276-.14-.521-1.132-2.016-.523-.624.517 1.34 1.428 2.487 2.188 3.632.589 1.092 1.284 2.232 2.357 2.913.362.347.71.879 1.22.987l-.003.002ZM5.11 20.552c.042-.183.222.396 0 0Zm4.944 4.371c-.387-.151.268-.12 0 0Zm.656.24c-.3.186-.069-.33 0 0Zm.825.344c-.605-.235.392-.374 0 0Zm1.412.787c-.762-.131.238-.352 0 0Zm-2.71-1.889c-.787-.006.61-.394 0 0Zm.62.31c-.221.093-.02-.209 0 0Zm3.086 1.927c.497.313 2.9.686 1.395.128-.253.053-2.789-.718-1.395-.128Zm-4.9-3.818c-.771-.23-.048-.208 0 0Zm1.436.838c-.776-.201.375-.262 0 0Zm1.22.75c-.87-.203.536-.202 0 0Zm-3.244-2.226c.582.446 2.35.056.89-.266-.662-.354-2.155-.596-1.137.212l.246.054h.001Zm4.05 2.472c-1.018-.236.244-.412 0 0Zm-1.23-.978c1.424.403-1.198-.9-.352-.15l.187.085.164.063v.002Zm2.467 1.425c-1.219-.187 1.35.013 0 0Zm-5.806-3.7c-.333.02-.053-.251 0 0Zm8.088 4.98c-.44.337.035-.454 0 0Zm-5.785-3.572c-.422-.01-.081-.239 0 0Zm-2.175-1.566c-1.06-.34.775-.046 0 0ZM5.49 19.584c-.842-.667-.097-.37 0 0Zm6.761 4.291c-.14-.162-.065.035 0 0Zm4.208 2.583c-.229.094-.013-.247 0 0Zm-4.58-2.967c-.66-.097.075-.319 0 0Zm-3.135-1.988c-.923-.389.577-.06 0 0Zm5.303 3.296c-.875-.174.898-.357 0 0Zm-2.759-1.872c1.034.133-1.23-.704-.227-.075l.227.075Zm3.596 2.21c.965-.576.647 1.353 1.639.163.977-.714-.844.883.36.128.871-.583 2.159.276 2.971.556.585-.028 1.154.506 1.754.18 1.153-.31-2.258-.46-1.364-1.012-1.055.308-1.835-.365-2.356-1.042-1.185-.274-2.553-.88-3.145-1.928-.24-.394.347.056-.208-.588-.713-.634-1.069-1.355-1.549-2.128-.572-.304-.64-1.204-.697-.03.004-.74-.691-1.24-.863-1.033-.003-.712.746-.356.222-.883-.113-.74-.484-1.51-.595-2.346-.173-.403-.024-1.265-.59-.353-.207.963-.069-1.183.253-.476.421-.722-.152-.638-.175-.538.275-.609.175-1.473-.072-1.143.146-.647.232-2.377-.218-2.07.272-.675.517-3.091-.668-2.17-.48.006-1.31.174-1.703.369 1.23.679-.124.245-.627.137-.065.628-.562.356-1.18.363.991.121-.484 1.012-1.05.667-.74.352.637 1.234.013 1.507.077.41-1.131-.149-1.037.8-.716-.302-.098 1.125.261.642 1.219.33.858 1.082.889 1.798-.199.416-.98-.98-.175-.915-.637-1.034-.703-.374-1.232.107-.122.035 1.35.685.425 1.004.813.125.836.837 1.001 1.286.488.509.388-.563.973.05-.37-.544-1.96-1.535-.68-1.22-.007-.547-.232-.99.161-.979.39-.703-.407 1.734.469.84.242-.106.303-.703.738.056.632.623.229 1.073-.664.503.16.542 1.193.735.998 1.581.207.746.495.47.746.428.187.724.31.191.319-.153.901.193.69.727.973 1.099.621.281-.891-1.901.178-.656 1.122 1.012.422 1.437-.586 1.274.637-.051.844.863 1.64.83.728.347 1.22 1.675-.033 1.121-.434-.391-1.975-.875-.717-.13 1.161.537 2.084.858 3.203 1.534.8.562 1.147 1.226 1.45 1.356-.673.322-2.029-.256-1.031-.434-.628-.114-1.335-.43-.733.351.512.427 1.812.383 2.046.431-.197.435-.538.469.007.504-.607.324.195.375.251.56l.008.002Zm-1.243-3.51c-.37-.387-.466-1.11-.066-.48.206.082.656 1.183.066.48Zm4.05 2.56c.006.176.23-.015 0 0Zm-4.632-3.52c-.015-.585.134.45 0 0Zm-.403-.54c-.466-.9.586.252 0 0ZM7.78 16.75c.135.467.274-.073 0 0Zm3.882 2.104c.168-.63.187.529 0 0Zm-2.743-1.907c-.193-.347.404.326 0 0Zm2.354.754c-.441-.987.313-.54.098.161l-.098-.161Zm-4.058-2.706c-.187-.324-.522-1.275-.417-1.565.094.472 1.005 2.034.446.656-.617-1.163.738.377.878.667.065.288-.381-.078-.08.598-.55-.77-.324.426-.826-.346v-.01Zm-1.253-.864c.051-.754.287.516 0 0Zm.564.195c.27-.568.456.792 0 0Zm-1.369-1.031c-.467-.464-.804-.891.023-.288.319.012-.708-.972.077-.313.825.15.407 1.352-.099.6Zm.713-.02c.144.265.272-.268 0 0Zm.439.142c-.413-.771.498.323 0 0Zm-.872-.833c-1.358-1.21 1.706.63.22.225l-.22-.225Zm3.888 2.26c-.587-.352-.156-2.48.044-1.025.572-.185-.031.752.394.742-.065.59-.258.804-.438.281v.001Zm1.438.85c.057-.642.122.438 0 0Zm-.249-.248c.006.323.066-.274 0 0Zm-4.802-3.26c-.872-1.202 2.534 1.217.559.305-.206-.054-.455-.073-.559-.305Zm2.77 1.469c-.082-1.013.184.168 0 0Zm2.103 1.35c.013.381.163-.577 0 0Zm-4.739-3.278c.519-.11 2.157.91.652.29-.166-.183-.521-.1-.652-.29Zm4.45 2.218c.056-1.036.31-.618.002.15l-.002-.15ZM6.23 11.368c.212-.31-.561-1.4.11-.39.282.23.841.385.357.483.764.675-.188.183-.466-.094l-.001.001Zm3.843 2.256c.129.69.146-1.181 0 0ZM5.79 10.279c.084.215.161-.07 0 0Zm1.003.597c.258-.542.476.604 0 0Zm2.829 1.573c-.002-.206.053.303 0 0Zm-.164-.362c-.392-.968.375.513 0 0Zm-.241-.635c-.066-.4.225.502 0 0Zm.391-.638c-.27-.474.34-2.09.41-1.087-.285.781-.082 1.218.114.168.366-.825-.078 1.629-.524.92Zm.404-2.406c.026.174.117-.144 0 0Zm-.674 13.267c-.16-.14.02.088 0 0Zm1.387.701c.772.199.769-.12.07-.215-.375-.35-1.558-.72-.498-.044.069.188.29.174.428.258v.001Zm-2.737-1.819c.424.32 1.6.899.605.122.336-.39-.642-.598-.319-.858-.825-.507-.651-.47-.073-.444-.992-.443.144-.41.09-.637-.382-.075-1.9-.675-1.007.048-.907-.462-.215.173-.49.106-.937-.253.825.707-.147.47.531.421 1.432 1.08.225.445-.16.23.864.577 1.125.75l-.01-.002Zm1.45.835c-.865-.694 1.762.568 0 0Zm7.425 4.498c-.241.3.022-.35 0 0Zm.763.322c.407-.394.017.628.675-.097.007-.518-.019-.825-.756-.195-.203.112-.293.59.082.29l-.001.002ZM5.51 18.6c-.876-.49-.125-.491 0 0Zm.815.534c-1.08-.454-.303-.501 0 0Zm4.637 2.797c.453.403 2.08.295.55.05-.226-.335-1.438-.254-.55-.05Zm6.373 3.937c-.675.261.697-.585 0 0Zm1.45.996c-.3.082.004-.187 0 0Zm.002-.262c-.747.046.772-.816 0 0Zm-15.282-9.68c-.656-.938-.408-1.36-1.042-2.125-.12-.586-1.088-1.916-.5-.507.537.825.697 2.1 1.542 2.635v-.003Zm15.038 9.418c-.582-.4 1.42-.917 0 0Zm1.084.425c-.45-.128.712-.61 0 0Zm-14.36-9.2c-.524-.04.204-.304 0 0Zm14.134 8.91c.688-.443-.16-.375-.125.04l.125-.04Zm-9.34-5.888c-.364.026-.023-.3 0 0Zm.577.332c-.281.058-.184-.37 0 0Zm9.867 5.855c.881-.637-.534-.122-.185.122l.185-.122Zm-.338-.163c-.759.266.72-.602 0 0Zm1.725 1.148c-.585-.103.482-.322 0 0ZM5.713 17.344c.646.144 2.582 1.592 1.44.1-.585-.173-.234-1.603-.831-1.35.4.67.328.954-.512.533-1.057-.516-.594.255-.387.468-.282.066.372.244.29.25v-.001Zm-2.945-2.325c.116-.478-1.065-2.635-.557-1.08.182.325.164.942.557 1.08Zm5.406 3.333c-.334-.279-.016-.04 0 0Zm.82.19c-.906-.205 0-.505 0 0Zm7.103 4.478c-.535-.007-.136-.347 0 0Zm.341.25c-.187.037-.05-.194 0 0Zm2.815 1.773c-.337-.026.272-.2 0 0ZM4.238 15.396c-.83-.214.774-.3 0 0Zm11.23 7.076c-.493.125-.009-.502 0 0Zm-11.537-7.79c-.46-.111.497-.17 0 0Zm1.444.699c-.153.062-.01-.165 0 0Zm17.613 10.8c.64-.13 2.099.325 2.335-.17-.778-.018-2.688-.548-2.778.127l.169.028.274.017v-.002ZM5.834 15.497c-.396-.019.011-.508 0 0Zm-3.797-2.634c-.656-.147-.172-.968 0 0Zm.905.227c-.829-.28.011-.31 0 0Zm.517.253c-.15-.121-.116.153 0 0Zm3.256 2.088c-.362-.103.154-.14 0 0Zm-3.6-2.662c-1.05-.11-.088-.732 0 0ZM1.26 11.564c-.18.128-.026-.337 0 0Zm.277-.208c-.238.05-.045-.4 0 0Zm1.525.91c.645-.254-1.175-.526-.131-.048l.13.047ZM23.478 24.88c-.525-.117.412-.378 0 0Zm2.465 1.278c-.417.066.166-.487 0 0ZM3.216 11.47c-.512.094.068-.473 0 0Zm-2.172-1.453C.93 9.347.947 8.175 2.061 8.571c-1.488.296 1.03 1.85.712.622.626.031 1.225-.37.895.237 1.235-.134 2.088-1.204 3.28-1.053.938-.124 1.943-.216 2.945-.591.822-.06 1.612-.944 1.162-1.47-1.121-.093-2.295.046-3.534.293-1.374.285-2.62.828-4.006 1.06-1.35.182.272.5-.116.572-.703.243.841.408-.09.667-.576-.11-1.175-.307-.929-.914-1.293.169-2.43.705-1.408 2.021l.075.001-.003.001Zm3.12-1.58c.303-1.117 1.625.92.497.15-.134-.1-.356-.182-.497-.15Zm.06-.541c.232.182.437-.326 0 0Zm.555.009c.04-.514 1.274.281.204.185l-.204-.185Zm.76-.306c.08.288.278-.325 0 0Zm.195-.13c.463-.557 2.618-.357 1.031-.055-.422-.319-.747.187-1.031.054Zm2.812-.435c-.07-1.519 1.399.54 0 0Zm.799-.005c.29-.765 1.134-.307.136-.153.022.081-.03.395-.136.153Zm-6.443 4.057c-.926-.463.871-.534 0 0Zm.645.187c-.657-.13.305-.325 0 0Zm-1.9-1.364c-.59-.145.497-.384 0 0ZM27.4 26.02c-.38.2.014-.444 0 0Zm-2.615-1.786c-.338.044.075-.51 0 0Zm3.337 1.96c.697.003 2.111-.216.596-.216-.239.038-1.388.028-.596.216ZM4.116 10.944c.564-.038.88-.622-.11-.59-1.538-.159 1.356.528-.188.33-.208.139.295.297.307.259h-.01Zm.497.25c-.175.193-.06-.361 0 0Zm.59-1.57c-.337-.082.244-.304 0 0ZM3.328 6.487c1.007-.342 2.383-.726 2.86.17-.484-.582-.195-1.156.262-.305.647.861.97-.391.55-.68.478.594 1.021.875.32.037.764-.918-1.528.12-2.05.11-.25.112-2.587.596-1.94.668h-.002Zm.59-1.13c.575-.432 1.986.259 1.08-.43-.088-.078-1.982.522-1.08.43Zm2.093.087c.672.017-.29-.903.51-.486-.131-.429-.932-.509-1.323-.681-.222.392.45 1.172.812 1.167h.001Zm-1.725-1.9c-.408.16.233-.314 0 0Zm.852.205c1.082-.143-.276-.466-.219-.011l.219.011ZM3.54 2.503c-.762-.996 1.434.167.66-.875-.653-.518-1.279.585-.66.875Zm9.782 5.269c.35-.619-1.444-.835-.234-.22.11.038.086.263.234.22Z"/></g><defs><clipPath id="a"><path fill="#fff" d="M0 0h30v30H0z"/></clipPath></defs></svg>