<svg xmlns="http://www.w3.org/2000/svg" width="30" height="30" fill="none"><g clip-path="url(#a)"><path fill="#639" d="M15 30c8.284 0 15-6.716 15-15 0-8.284-6.716-15-15-15C6.716 0 0 6.716 0 15c0 8.284 6.716 15 15 15Z"/><path fill="#fff" d="M6.643 23.357c-2.25-2.25-3.429-5.25-3.429-8.143l11.679 11.572c-3-.107-6-1.179-8.25-3.429Zm10.928 3.107L3.537 12.43C4.714 7.179 9.429 3.214 15 3.214c3.964 0 7.393 1.929 9.536 4.822l-1.607 1.393C21.107 6.964 18.214 5.357 15 5.357c-4.178 0-7.714 2.679-9.107 6.429l12.321 12.321c3.108-1.071 5.465-3.75 6.215-6.964h-5.143V15h7.5c0 5.571-3.965 10.286-9.215 11.464Z"/></g><defs><clipPath id="a"><path fill="#fff" d="M0 0h30v30H0z"/></clipPath></defs></svg>