<svg xmlns="http://www.w3.org/2000/svg" width="30" height="30" fill="none"><g clip-path="url(#a)"><path fill="#EA4335" d="m19.091 9.604.961.016 2.611-2.61.127-1.107a11.686 11.686 0 0 0-7.793-2.969c-5.41 0-9.975 3.681-11.327 8.667.285-.2.895-.05.895-.05l5.217-.858s.268-.444.404-.422A6.507 6.507 0 0 1 15 8.145a6.518 6.518 0 0 1 4.091 1.454v.005Z"/><path fill="#4285F4" d="M26.33 11.61a11.753 11.753 0 0 0-3.542-5.707L19.091 9.6a6.506 6.506 0 0 1 2.432 5.072v.652a3.264 3.264 0 0 1 3.26 3.26 3.264 3.264 0 0 1-3.26 3.26h-6.52l-.652.656v3.912l.652.65h6.52A8.49 8.49 0 0 0 30 18.583a8.482 8.482 0 0 0-3.67-6.973Z"/><path fill="#34A853" d="M8.477 27.066h6.516v-5.222H8.477c-.463 0-.92-.1-1.341-.292l-.941.288-2.611 2.611-.229.882a8.438 8.438 0 0 0 5.122 1.729v.004Z"/><path fill="#FBBC05" d="M8.477 10.11A8.49 8.49 0 0 0 0 18.589c0 2.753 1.319 5.2 3.36 6.751l3.78-3.78a3.262 3.262 0 0 1-1.922-2.971 3.264 3.264 0 0 1 3.26-3.26c1.321 0 2.457.797 2.971 1.922l3.78-3.78a8.464 8.464 0 0 0-6.751-3.36Z"/></g><defs><clipPath id="a"><path fill="#fff" d="M0 0h30v30H0z"/></clipPath></defs></svg>