<svg xmlns="http://www.w3.org/2000/svg" width="30" height="30" fill="none"><g clip-path="url(#a)"><path fill="#F05033" d="M28.453 13.209 15.795.547a1.869 1.869 0 0 0-2.642 0l-2.632 2.63 3.335 3.335c1.752-.592 3.41 1.086 2.809 2.827l3.214 3.215c2.216-.764 3.96 2.007 2.296 3.67-1.715 1.715-4.545-.186-3.625-2.417l-3-2.997v7.888c1.638.812 1.44 2.71.588 3.56a2.223 2.223 0 0 1-3.143 0c-1.137-1.139-.717-3.036.728-3.625v-7.962c-1.346-.55-1.592-1.99-1.206-2.913L9.229 4.466.547 13.15a1.868 1.868 0 0 0 0 2.641l12.662 12.662a1.868 1.868 0 0 0 2.641 0L28.453 15.85a1.869 1.869 0 0 0 0-2.641Z"/></g><defs><clipPath id="a"><path fill="#fff" d="M0 0h30v30H0z"/></clipPath></defs></svg>