<svg xmlns="http://www.w3.org/2000/svg" width="30" height="30" fill="none" xmlns:v="https://vecta.io/nano"><path d="M15.315 2.5A12.82 12.82 0 0 0 2.5 15.315c0 5.662 3.671 10.466 8.765 12.16.641.118.875-.279.875-.617l-.018-2.385c-3.564.774-4.317-1.511-4.317-1.511-.584-1.48-1.423-1.875-1.423-1.875-1.165-.795.088-.779.088-.779 1.286.089 1.965 1.321 1.965 1.321 1.143 1.959 3.001 1.392 3.73 1.063.117-.826.448-1.392.813-1.711-2.844-.323-5.837-1.423-5.837-6.334 0-1.4.5-2.542 1.318-3.439-.13-.326-.572-1.629.127-3.393 0 0 1.075-.344 3.524 1.314a12.19 12.19 0 0 1 3.206-.431c1.089.005 2.185.147 3.209.433 2.444-1.66 3.522-1.314 3.522-1.314.7 1.765.259 3.067.128 3.391.821.897 1.317 2.039 1.317 3.439 0 4.923-2.997 6.007-5.852 6.325.462.398.869 1.177.869 2.371l-.017 3.517c0 .341.233.74.882.614 5.089-1.697 8.757-6.5 8.757-12.16A12.82 12.82 0 0 0 15.314 2.501l.001-.001z" fill="#f8f8f8"/></svg>