<svg xmlns="http://www.w3.org/2000/svg" width="30" height="30" fill="none"><path fill="#74CCDC" d="M26.814 21.982c-8.736.81-17.739 2.676-26.814 3.264 1.38-1.413 4.209-1.23 6.762-1.632 4.485-.705 10.125-1.185 15.156-1.866 1.623-.22 3.741-1.098 4.896.234Zm-8.625 3.264c-2.925.333-5.4.498-7.929.699-1.716.138-3.582-.213-4.665.933 3.579.975 7.935-.615 11.658-.468.513-.423 6.198.5 8.628-1.632-1.989-1.26-4.848.144-7.692.468ZM4.182 19.174c-2.277-2.82 1.161-7.515 3.03-9.792.831-1.011 1.665-2.08 2.565-3.03 1.974-2.085 2.265-2.79 4.896-3.963 3.969-1.77 5.565 2.943 3.03 5.364-.972.249-1.029.06-2.097 0 .957-.948.744-2.802 1.167-3.73-.027-.44-.771-.161-.699-.698C12.285 4.858 9.84 7.663 7.68 11.01c-.909 1.41-1.908 2.81-2.1 5.13.027.44.771.162.699.699.258.006.504 0 .738-.015v-.006h.084c3.777-.294 4.719-3.423 6.87-5.343-1.467-.66-2.988 1.389-4.431.234 1.218-2.31 4.659-1.536 7.695-2.331.24.762.591.495 0 1.167 3.168-2.295 4.956-9.162 11.658-7.93 1.998 5.248-2.421 10.258-5.595 13.06-2.289 2.019-3.435 3.54-6.762 2.799-1.068-1.05-.942-2.862-.933-3.03.051-1.077.756-2.424.699-3.498-.513 1.818-3.51 2.394-3.498 3.963-2.358 1.596-4.317 3.603-8.622 3.264Zm13.059-3.264c3.015.95 4.953-2.466 7.227-3.732 1.332-2.004 3.816-4.842 2.799-7.695C22.755 5.43 18.6 10.3 17.241 15.91Z"/></svg>