<svg xmlns="http://www.w3.org/2000/svg" width="30" height="30" fill="none"><path fill="#6762A6" fill-rule="evenodd" d="M5.67 29h17.243a2.67 2.67 0 0 0 2.671-2.67V3.67A2.67 2.67 0 0 0 22.914 1H5.67A2.67 2.67 0 0 0 3 3.67v22.66A2.67 2.67 0 0 0 5.67 29Zm11.483-14.972v11.12h3.033V14.064c0-6.103-8.812-2.632-8.812-2.632V4.815l-3.148.019s0 10.33.018 10.282c9.632-3.75 8.91-1.088 8.91-1.088ZM15.608 8.82h3.338c1.812-2.346 2.403-3.986 2.403-3.986h-3.451S16.81 7.35 15.608 8.82Zm-7.325 9.976v6.332l3.167-3.166-3.167-3.166Z" clip-rule="evenodd"/></svg>