<svg xmlns="http://www.w3.org/2000/svg" width="30" height="30" fill="none"><g clip-path="url(#a)"><path fill="#C63D14" d="M28.122 14.757c0-1.541-1.38-2.79-3.084-2.79-.11 0-.218.005-.324.015L28.95.682h-18l4.229 11.29a3.415 3.415 0 0 0-.188-.005c-1.703 0-3.083 1.249-3.083 2.79 0 1.245.902 2.3 2.147 2.658a12.478 12.478 0 0 1-2.425 2.76 12.619 12.619 0 0 1-4.321 2.427c-1.883-.875-2.772-2.82-1.97-4.527.09-.193.183-.388.271-.582 1.365-.288 2.381-1.395 2.381-2.716 0-1.541-1.38-2.79-3.084-2.79-1.703 0-3.084 1.249-3.084 2.79 0 .944.52 1.779 1.314 2.284-.763 1.572-1.885 3.217-2.235 5.124-.419 2.285-.001 4.711 2.184 6.08 5.089 3.191 10.612-1.977 16.437-3.276 2.11-.47 4.427-.395 6.287-1.37 1.396-.731 2.317-1.944 2.578-3.305.258-1.345-.118-2.684-.983-3.77a2.624 2.624 0 0 0 .717-1.787Zm-10.047.01v-.01c0-1.012-.595-1.898-1.486-2.387l3.366-6.158 3.373 6.223c-.828.5-1.374 1.353-1.374 2.322l.002.06-3.88-.05Z"/><path fill="#fff" d="M28.875 14.757c0-1.695-1.35-3.109-3.128-3.411L30 0H9.898l4.26 11.369c-1.717.345-3.004 1.733-3.004 3.388 0 1.242.726 2.334 1.814 2.947a12.019 12.019 0 0 1-1.855 1.976 11.838 11.838 0 0 1-3.739 2.173c-1.364-.776-1.941-2.238-1.342-3.511l.047-.1.088-.188c1.498-.472 2.577-1.763 2.577-3.277 0-1.914-1.721-3.471-3.837-3.471s-3.837 1.557-3.837 3.47c0 .967.439 1.841 1.145 2.471a55.69 55.69 0 0 1-.401.755c-.646 1.2-1.378 2.56-1.655 4.071-.55 3 .337 5.398 2.498 6.753a7.313 7.313 0 0 0 3.982 1.145c2.523 0 5.075-1.146 7.57-2.268 1.799-.808 3.657-1.643 5.494-2.053.683-.152 1.386-.244 2.13-.34 1.476-.193 3.002-.392 4.354-1.1 1.567-.822 2.64-2.199 2.943-3.78.26-1.356-.053-2.714-.817-3.867a3.209 3.209 0 0 0 .562-1.806Zm-1.506 0c0 1.162-1.046 2.108-2.331 2.108s-2.331-.946-2.331-2.108c0-1.163 1.046-2.109 2.33-2.109 1.286 0 2.332.946 2.332 2.109Zm.53-13.394-3.756 10.019a4.1 4.1 0 0 0-.475.133l-3.71-6.846-3.72 6.806a4.108 4.108 0 0 0-.496-.122l-3.743-9.99h15.9ZM14.99 12.648c1.285 0 2.331.946 2.331 2.109 0 1.162-1.046 2.108-2.33 2.108-1.286 0-2.331-.946-2.331-2.108 0-1.163 1.045-2.109 2.33-2.109Zm-10.084.02c1.285 0 2.33.946 2.33 2.109 0 1.162-1.045 2.108-2.33 2.108-1.285 0-2.33-.946-2.33-2.109 0-1.162 1.045-2.108 2.33-2.108Zm22.739 7.53c-.227 1.181-1.034 2.214-2.214 2.832-1.1.576-2.418.748-3.814.93-.747.098-1.52.199-2.276.367-1.997.446-3.931 1.315-5.802 2.156-3.744 1.682-6.977 3.134-10.025 1.223-2.233-1.4-2.13-3.99-1.87-5.41.241-1.315.893-2.526 1.523-3.697.11-.203.215-.401.32-.599.312.113.644.19.99.226-.64 1.915.368 3.998 2.486 4.982l.29.135.307-.099a13.34 13.34 0 0 0 4.586-2.573 13.311 13.311 0 0 0 2.27-2.482c.187.025.38.039.574.039 2.116 0 3.837-1.557 3.837-3.472 0-1.029-.498-1.954-1.287-2.59l2.411-4.412 2.436 4.495c-.73.633-1.187 1.522-1.187 2.508 0 1.914 1.72 3.47 3.837 3.47.813 0 1.567-.23 2.188-.622.431.8.592 1.698.42 2.593Z"/></g><defs><clipPath id="a"><path fill="#fff" d="M0 0h30v30H0z"/></clipPath></defs></svg>