<svg xmlns="http://www.w3.org/2000/svg" width="30" height="30" fill="none"><path fill="#F2DB1D" d="M2 2v25h25V2H2Zm13.393 19.42c0 2.433-1.438 3.62-3.519 3.62-1.879 0-2.97-.974-3.524-2.148l1.913-1.158c.37.654.65 1.208 1.455 1.208.67 0 1.22-.302 1.22-1.477v-7.858h2.455v7.813Zm5.544 3.564c-2.181 0-3.591-.985-4.28-2.344l1.917-1.109c.502.823 1.158 1.37 2.316 1.37.973 0 1.538-.43 1.538-1.101 0-.806-.582-1.09-1.656-1.563l-.587-.252c-1.696-.721-2.82-1.627-2.82-3.54 0-1.763 1.343-3.05 3.44-3.05 1.494 0 2.567.465 3.34 1.824l-1.832 1.178c-.403-.721-.838-1.004-1.51-1.004-.689 0-1.125.436-1.125 1.004 0 .705.436.99 1.443 1.427l.587.251c1.997.856 3.122 1.73 3.122 3.692 0 2.115-1.66 3.217-3.893 3.217Z"/></svg>