<svg xmlns="http://www.w3.org/2000/svg" width="30" height="30" fill="none"><g fill-rule="evenodd" clip-path="url(#a)" clip-rule="evenodd"><path fill="#E53835" d="m26.453 15.817-.718-.846-.717.846L21.47 20h1.435l2.83-3.336 2.83 3.336H30l-3.547-4.182ZM28.545 9.314l-2.81 3.312-2.809-3.312h-1.455l3.537 4.17.727.858.728-.858L30 9.314h-1.455Z"/><path fill="#88898C" d="M11.965 17.751c.735.809 1.752 1.341 2.81 1.341 1.341 0 2.137-.713 2.137-1.773 0-1.115-.74-1.47-1.705-1.92l-1.469-.692c-.952-.434-2.07-1.205-2.07-2.81 0-1.668 1.36-2.897 3.218-2.897 1.212 0 2.292.56 3.01 1.352l-.721.861c-.62-.613-1.36-.992-2.289-.992-1.146 0-1.905.617-1.905 1.594 0 1.051.89 1.444 1.692 1.806l1.456.673c1.183.542 2.106 1.295 2.106 2.918 0 1.724-1.334 3.101-3.483 3.101-1.435 0-2.682-.625-3.575-1.62l.788-.942ZM5.212 9.36S5.2 14.692 5.2 16.016c0 1.691-.712 2.345-.735 2.371-.813.907-2.203.976-3.072.134-.226-.22-.43-.456-.622-.673L0 18.791c.157.18.26.305.446.508.653.716 1.506 1.083 2.354 1.093.848.01 1.892-.339 2.524-1.035l.016-.017c.03-.033 1.117-1.141 1.123-3.089v-6.89H5.212Z"/></g><defs><clipPath id="a"><path fill="#fff" d="M0 0h30v30H0z"/></clipPath></defs></svg>