<svg xmlns="http://www.w3.org/2000/svg" width="30" height="30" fill="none"><path fill="#131313" d="M20.767 16.616a4.375 4.375 0 0 0-3.175 1.333l-1.989-1.301a4.679 4.679 0 0 0 .332-1.718c0-.593-.117-1.16-.32-1.69l1.984-1.287a4.376 4.376 0 0 0 3.168 1.326C23.1 13.279 25 11.524 25 9.368c0-2.157-1.9-3.91-4.233-3.91-2.334 0-4.233 1.753-4.233 3.91 0 .386.063.758.176 1.11l-1.986 1.289c-.83-.951-2.024-1.615-3.385-1.818V7.738C13.256 7.365 14.7 5.792 14.7 3.91 14.7 1.754 12.8 0 10.468 0 8.134 0 6.235 1.754 6.235 3.91c0 1.856 1.407 3.41 3.286 3.81v2.24C6.957 10.376 5 12.443 5 14.93c0 2.499 1.976 4.574 4.559 4.976v2.366c-1.898.385-3.324 1.949-3.324 3.817 0 2.157 1.899 3.911 4.233 3.911 2.334 0 4.233-1.754 4.233-3.91 0-1.869-1.426-3.433-3.325-3.819v-2.365c1.308-.204 2.49-.84 3.329-1.788l2.002 1.31c-.111.348-.173.717-.173 1.1 0 2.156 1.899 3.91 4.233 3.91 2.334 0 4.233-1.754 4.233-3.91 0-2.157-1.9-3.912-4.233-3.912Zm0-9.144c1.132 0 2.052.85 2.052 1.896 0 1.045-.92 1.896-2.052 1.896-1.132 0-2.052-.85-2.052-1.896 0-1.045.92-1.896 2.052-1.896ZM8.415 3.91c0-1.046.92-1.896 2.053-1.896 1.132 0 2.052.85 2.052 1.896 0 1.045-.92 1.896-2.052 1.896-1.132 0-2.053-.85-2.053-1.896Zm4.105 22.178c0 1.046-.92 1.896-2.052 1.896-1.132 0-2.053-.85-2.053-1.896 0-1.045.92-1.896 2.053-1.896 1.132 0 2.052.85 2.052 1.896Zm-2.052-8.514c-1.579 0-2.863-1.187-2.863-2.645s1.284-2.645 2.863-2.645c1.578 0 2.862 1.187 2.862 2.645s-1.284 2.645-2.862 2.645Zm10.299 4.848c-1.132 0-2.052-.85-2.052-1.896 0-1.045.92-1.896 2.052-1.896 1.132 0 2.052.85 2.052 1.896 0 1.045-.92 1.896-2.052 1.896Z"/></svg>