<svg xmlns="http://www.w3.org/2000/svg" width="30" height="30" fill="none"><g clip-path="url(#a)"><path fill="#FF2D20" d="M29.93 6.845c.01.04.017.08.017.122v6.4a.455.455 0 0 1-.065.234.475.475 0 0 1-.178.17l-5.554 3.093v6.13c0 .168-.091.322-.241.405l-11.594 6.456c-.026.014-.055.023-.084.033-.01.004-.021.01-.033.013a.502.502 0 0 1-.247 0c-.013-.003-.025-.01-.038-.015-.026-.01-.054-.017-.08-.031L.244 23.399a.475.475 0 0 1-.178-.17.456.456 0 0 1-.065-.234V3.794c0-.042.006-.083.017-.123.004-.013.012-.025.017-.039.009-.024.017-.05.03-.072.01-.015.023-.027.034-.041.014-.02.026-.038.043-.055.013-.013.031-.023.047-.035.018-.014.033-.029.053-.04L6.039.162a.496.496 0 0 1 .482 0l5.796 3.227h.001c.02.012.036.026.053.04.016.011.034.022.047.035.017.017.03.036.044.055.01.014.024.026.032.041.014.023.022.048.032.072.005.014.013.026.017.04.01.04.016.08.017.122v11.992l4.83-2.69v-6.13c0-.04.005-.082.016-.121.004-.014.012-.027.017-.04.01-.024.018-.05.031-.072.01-.015.023-.028.033-.042.014-.018.026-.038.043-.054.014-.013.032-.023.047-.035.018-.014.034-.03.053-.04h.001l5.797-3.228a.495.495 0 0 1 .482 0l5.796 3.228c.02.011.036.026.054.04.015.011.033.022.046.034.017.017.03.037.044.055.01.014.024.027.032.042.014.022.022.048.032.072.005.013.013.026.017.04Zm-.95 6.252V7.775l-2.028 1.129-2.802 1.56v5.322l4.831-2.69Zm-5.795 9.628v-5.326l-2.757 1.522-7.87 4.345v5.376l10.627-5.917ZM.966 4.602v18.123l10.626 5.916v-5.374l-5.551-3.04h-.002l-.003-.001c-.018-.01-.034-.026-.051-.039-.015-.012-.033-.02-.046-.034l-.001-.002c-.016-.014-.027-.032-.04-.049-.012-.015-.027-.029-.036-.045l-.001-.002c-.01-.017-.018-.038-.025-.058-.008-.018-.018-.034-.023-.053-.006-.022-.007-.046-.01-.068-.002-.018-.007-.035-.007-.053V7.292L2.994 5.73.966 4.602ZM6.28 1.105 1.45 3.794l4.828 2.688 4.829-2.689-4.829-2.688h.002Zm2.51 16.78 2.802-1.56V4.601l-2.028 1.13-2.802 1.56v11.722l2.029-1.13ZM23.669 4.277l-4.829 2.689 4.829 2.688 4.828-2.689-4.828-2.688Zm-.483 6.186-2.802-1.56-2.029-1.13v5.323l2.802 1.56 2.029 1.13v-5.323Zm-11.11 11.994 7.082-3.91 3.54-1.955-4.825-2.687L12.317 17l-5.063 2.819 4.82 2.639Z"/></g><defs><clipPath id="a"><path fill="#fff" d="M0 0h30v30H0z"/></clipPath></defs></svg>