<svg xmlns="http://www.w3.org/2000/svg" width="30" height="30" fill="none"><path fill="#4BA345" d="M21.372 13.652a12.8 12.8 0 0 0-.381-2.154c-.586-2.22-1.562-4.347-2.938-6.19-.375-.502-.78-.982-1.213-1.436-.447-.468-.942-.897-1.253-1.48-.197-.368-.384-.741-.576-1.112-.002.116-.01.232-.01.347 0-.116.008-.232.01-.348L14.89.972c-.021.07-.034.095-.034.121-.016.605-.36 1.015-.786 1.399-.48.431-.927.899-1.388 1.35l.051.063c-.018-.02-.035-.04-.051-.062-1.372 1.804-2.58 3.732-3.292 5.897-.207.63-.37 1.274-.485 1.927-.242 1.389-.355 2.738-.277 4.144.043.777.179 1.542.381 2.295.736 2.735 2.23 5.002 4.274 6.93.38.358.789.683 1.186 1.025l.002-.01-.002.01.175.602.163.933c.026.325.051.65.078.974-.001.198-.01.397.003.594.002.05.069.097.105.146l.004-.006a.02.02 0 0 1-.004.006c.111.038.22.078.332.116l.344.134c-.022-.324-.04-.595-.06-.866l-.002-.853-.02.02.02-.02.119-1.3.086-.283.246-.437c.305-.246.632-.468.91-.741.503-.494 1.005-.994 1.454-1.535a11.525 11.525 0 0 0 1.489-2.288c1.146-2.335 1.677-4.94 1.466-7.537a8.971 8.971 0 0 1-.006-.07l.001.002Z"/></svg>