<svg xmlns="http://www.w3.org/2000/svg" width="30" height="30" fill="none"><path fill="#006185" fill-rule="evenodd" d="M7.372 5.804a3.037 3.037 0 0 0-.782.089v.044h.044c.152.318.42.523.608.797l.434.93.044-.045c.269-.193.392-.502.39-.974-.108-.116-.124-.26-.217-.398-.124-.184-.364-.288-.52-.443Zm21.02 22.709c.205.153.342.39.608.487v-.044c-.14-.181-.175-.43-.304-.62l-.565-.576c-.552-.747-1.252-1.402-1.997-1.947-.594-.435-1.924-1.022-2.172-1.726l-.043-.045c.42-.048.914-.204 1.303-.31.653-.178 1.236-.132 1.91-.31l.912-.265v-.178c-.34-.356-.583-.828-.955-1.15-.973-.844-2.034-1.688-3.127-2.39-.606-.391-1.355-.644-1.998-.975-.216-.11-.595-.169-.738-.354-.337-.439-.521-.994-.781-1.505a57.683 57.683 0 0 1-1.564-3.365c-.33-.767-.545-1.524-.955-2.213-1.972-3.305-4.095-5.3-7.383-7.26-.7-.417-1.543-.581-2.432-.796l-1.434-.089c-.291-.124-.594-.488-.868-.664-1.09-.701-3.884-2.227-4.69-.221-.51 1.266.76 2.501 1.215 3.143.32.45.728.955.956 1.46.15.333.175.667.304 1.019.316.867.59 1.81.999 2.611.206.406.434.833.695 1.195.16.223.434.321.477.664-.268.383-.283.977-.434 1.461-.679 2.182-.422 4.893.565 6.508.303.495 1.016 1.558 1.997 1.15.858-.356.667-1.46.912-2.434.055-.221.022-.384.13-.531v.044l.782 1.593c.58.95 1.606 1.943 2.476 2.612.45.348.806.948 1.39 1.151v-.045h-.044c-.113-.179-.29-.254-.434-.398a10.13 10.13 0 0 1-1-1.15c-.79-1.096-1.49-2.294-2.127-3.542-.304-.596-.569-1.253-.825-1.859-.1-.234-.098-.587-.304-.708-.281.444-.695.803-.913 1.328-.347.838-.392 1.86-.52 2.921-.077.028-.043.009-.088.044-.605-.148-.817-.783-1.042-1.328-.568-1.376-.674-3.594-.174-5.179.13-.41.715-1.701.478-2.08-.113-.378-.486-.597-.694-.886a6.971 6.971 0 0 1-.696-1.24c-.465-1.073-.682-2.278-1.172-3.363-.234-.519-.63-1.044-.956-1.505-.36-.511-.763-.887-1.042-1.506-.1-.22-.234-.57-.087-.796.046-.153.113-.216.26-.266.253-.198.954.066 1.217.177.696.295 1.277.576 1.867.974.283.191.57.562.912.664h.39c.613.143 1.298.045 1.868.222 1.01.312 1.915.799 2.736 1.328 2.503 1.61 4.55 3.904 5.95 6.64.226.44.323.86.521 1.328.4.942.905 1.911 1.303 2.833.397.918.785 1.846 1.346 2.611.295.402 1.436.618 1.955.842.363.156.959.32 1.302.53.658.405 1.295.886 1.912 1.329.308.221 1.255.707 1.302 1.106-1.527-.041-2.694.103-3.691.532-.284.12-.735.125-.782.486.156.166.18.415.304.62.238.393.64.919.999 1.195.392.302.796.625 1.216.886.747.465 1.582.73 2.302 1.195.425.275.846.62 1.26.93Z" clip-rule="evenodd"/></svg>