<svg xmlns="http://www.w3.org/2000/svg" width="30" height="30" fill="none"><g clip-path="url(#a)"><path fill="#2CB2B4" d="M21.168 10.649c.142.072.27.169.378.287l2.937-1.306-2.74-2.714-.614 3.693.038.04Zm-6.093-2.466c.143.215.232.46.261.717l4.371 1.852c.133-.1.284-.176.444-.22l.718-4.438L18.206 3.3l-3.131 4.815v.066Zm14.916 6.863-4.685-4.685-3.185 1.305 7.83 3.328s.066.052.04.052Zm-.784.758-7.516-3.212a1.306 1.306 0 0 1-.875.51l-.808 4.945c.24.244.377.572.378.914l4.541.953 4.163-4.138V15.7l.117.105Zm-9.957-4.242-4.085-1.737a1.5 1.5 0 0 1-1.305.679h-.249l-3.38 5.221 9.031-3.915v.012a1.102 1.102 0 0 1 0-.208.066.066 0 0 0-.012-.052Zm4.959 9.136-3.994-.823a1.37 1.37 0 0 1-.575.43l-.951 5.9 5.546-5.495s-.012.025-.026.025v-.037Zm-5.587-.405a1.305 1.305 0 0 1-.77-.888l-7.437-1.527-.105.17 6.748 9.762.403-.405 1.149-7.088s.039.028.012.014v-.038Zm-8.05-3.316 7.347 1.514a1.304 1.304 0 0 1 1.03-.652l.796-4.868-.169-.143-9.135 3.915c.048.075.092.154.13.235Zm-3.08 1.227-.157-.157-3.171 1.305 1.54 1.528 1.748-2.715.04.039Zm2.087.496a1.71 1.71 0 0 1-1.267.065l-1.93 2.806 8.457 8.378 1.487-1.475L9.58 18.7ZM8.39 15.399c.13-.012.262-.012.393 0 .143-.018.287-.018.43 0l3.418-5.313a1.488 1.488 0 0 1-.417-1.03 1.547 1.547 0 0 1 0-.338l-4.15-1.92-3.34 3.25 3.666 5.35Zm.379-9.253 4.046 1.723a1.553 1.553 0 0 1 1.044-.353c.168.002.336.028.496.079l3.158-4.934-2.61-2.61L8.77 6.067s-.012.066 0 .08ZM7.258 16.351c.08-.151.182-.292.3-.417l-3.46-5.168L0 14.746l7.255 1.605h.003Zm-.328.875L.666 15.92l2.754 2.793 3.471-1.474.039-.012Z"/></g><defs><clipPath id="a"><path fill="#fff" d="M0 0h30v30H0z"/></clipPath></defs></svg>