<svg xmlns="http://www.w3.org/2000/svg" width="30" height="30" fill="#f8f8f8" xmlns:v="https://vecta.io/nano"><path d="M7.064 9.975h5.646v.474H7.581v3.567h4.823v.474H7.581v3.916h5.188v.474H7.064V9.975zm6.152 0h.6l2.658 3.916 2.717-3.916L22.887 5l-6.072 9.302 3.129 4.577h-.623l-2.847-4.166-2.858 4.166h-.612l3.153-4.577-2.941-4.328zm6.952.474v-.474h6.434v.474h-2.964v8.431h-.517v-8.431h-2.953zM0 9.975h.647l8.921 14.099-3.687-5.193-5.34-8.232-.024 8.232H0V9.975zm26.55 8.288c.107 0 .185-.086.185-.198s-.078-.198-.185-.198-.185.087-.185.198.079.198.185.198zm.509-.522c0 .33.225.546.554.546.35 0 .561-.222.561-.608V16.32h-.282v1.358c0 .214-.102.329-.282.329-.161 0-.271-.107-.274-.265h-.277zm1.484-.017c.02.343.291.563.694.563.43 0 .7-.23.7-.598 0-.289-.154-.449-.526-.541l-.2-.052c-.237-.059-.332-.137-.332-.274 0-.173.149-.286.371-.286.212 0 .358.11.384.287h.274c-.016-.323-.286-.551-.655-.551-.396 0-.661.228-.661.57 0 .282.15.45.478.531l.234.06c.24.06.346.148.346.294 0 .17-.166.294-.393.294-.243 0-.412-.116-.436-.298h-.279z"/></svg>