<svg xmlns="http://www.w3.org/2000/svg" width="30" height="30" fill="none"><path fill="#131313" d="M7.064 9.975h5.646v.473H7.58v3.568h4.823v.473H7.581v3.917h5.188v.474H7.064V9.975Zm6.152 0h.6l2.658 3.916 2.717-3.916L22.887 5l-6.072 9.302 3.13 4.578h-.624l-2.847-4.166-2.858 4.166h-.612l3.153-4.578-2.941-4.327Zm6.952.473v-.473h6.434v.473h-2.964v8.432h-.518v-8.431h-2.952ZM0 9.975h.647l8.921 14.098-3.687-5.193-5.34-8.232-.023 8.232H0V9.975ZM26.55 18.263c.107 0 .185-.087.185-.199 0-.111-.078-.198-.185-.198-.106 0-.185.087-.185.198 0 .112.08.199.185.199Zm.508-.522c0 .33.226.546.554.546.35 0 .562-.223.562-.609V16.32h-.282v1.358c0 .214-.102.329-.282.329-.161 0-.27-.107-.275-.265h-.277Zm1.485-.017c.02.343.29.563.693.563.43 0 .7-.23.7-.598 0-.289-.154-.448-.526-.54l-.2-.052c-.237-.059-.333-.137-.333-.274 0-.174.149-.287.372-.287.211 0 .357.11.384.288h.274c-.016-.324-.286-.551-.654-.551-.397 0-.661.227-.661.57 0 .282.15.45.478.53l.234.06c.24.06.346.148.346.295 0 .17-.166.294-.392.294-.243 0-.412-.116-.436-.298h-.28Z"/></svg>