<svg xmlns="http://www.w3.org/2000/svg" width="30" height="30" fill="none"><g clip-path="url(#a)"><path fill="#8DC13E" d="M14.874 30c-.402 0-.801-.105-1.153-.308l-3.67-2.173c-.548-.306-.281-.415-.1-.477.73-.256.879-.314 1.66-.757.081-.047.188-.03.272.02l2.82 1.672a.372.372 0 0 0 .34 0l10.993-6.345a.347.347 0 0 0 .168-.297V8.649a.353.353 0 0 0-.17-.302l-10.988-6.34a.338.338 0 0 0-.339 0L3.721 8.347a.35.35 0 0 0-.175.3v12.685c0 .12.067.236.171.294l3.01 1.74c1.635.817 2.634-.146 2.634-1.115V9.73c0-.18.14-.317.319-.317h1.392c.174 0 .317.138.317.317v12.525c0 2.18-1.189 3.432-3.255 3.432-.636 0-1.137 0-2.535-.688l-2.884-1.662a2.325 2.325 0 0 1-1.152-2.006V8.647c0-.826.44-1.596 1.152-2.004L13.72.295a2.41 2.41 0 0 1 2.31 0l10.991 6.351a2.319 2.319 0 0 1 1.153 2.003v12.686c0 .822-.443 1.59-1.153 2.003l-10.99 6.348a2.31 2.31 0 0 1-1.158.308V30Zm3.395-8.741c-4.81 0-5.818-2.208-5.818-4.06 0-.176.142-.316.318-.316h1.42c.157 0 .289.114.314.269.214 1.447.853 2.176 3.761 2.176 2.317 0 3.302-.523 3.302-1.752 0-.707-.28-1.232-3.88-1.585-3.01-.297-4.87-.96-4.87-3.368 0-2.218 1.871-3.538 5.005-3.538 3.52 0 5.264 1.221 5.484 3.846a.32.32 0 0 1-.319.347h-1.428a.316.316 0 0 1-.308-.248c-.344-1.521-1.175-2.008-3.434-2.008-2.53 0-2.824.88-2.824 1.54 0 .802.347 1.035 3.76 1.487 3.378.448 4.983 1.081 4.983 3.456 0 2.394-1.998 3.767-5.482 3.767l.016-.013Z"/></g><defs><clipPath id="a"><path fill="#fff" d="M0 0h30v30H0z"/></clipPath></defs></svg>