<svg xmlns="http://www.w3.org/2000/svg" width="30" height="30" fill="none"><g clip-path="url(#a)"><path fill="#000" d="M26.995 12.458a6.981 6.981 0 0 0-.601-5.73 7.054 7.054 0 0 0-7.595-3.383A7.076 7.076 0 0 0 6.811 5.88a6.982 6.982 0 0 0-4.664 3.383 7.054 7.054 0 0 0 .866 8.28 6.976 6.976 0 0 0 .596 5.729 7.06 7.06 0 0 0 7.6 3.383A6.984 6.984 0 0 0 16.47 29a7.065 7.065 0 0 0 6.735-4.907 6.986 6.986 0 0 0 4.664-3.383 7.065 7.065 0 0 0-.872-8.252ZM16.47 27.168a5.221 5.221 0 0 1-3.356-1.215l.166-.094 5.574-3.218a.926.926 0 0 0 .458-.794v-7.86l2.357 1.363a.082.082 0 0 1 .044.06v6.514a5.254 5.254 0 0 1-5.243 5.243ZM5.199 22.353a5.216 5.216 0 0 1-.624-3.515l.166.099 5.58 3.218a.9.9 0 0 0 .91 0l6.818-3.93v2.721a.095.095 0 0 1-.04.072l-5.646 3.256a5.25 5.25 0 0 1-7.164-1.92ZM3.731 10.211A5.233 5.233 0 0 1 6.49 7.91v6.623a.894.894 0 0 0 .452.79l6.784 3.913-2.357 1.363a.088.088 0 0 1-.083 0l-5.635-3.25a5.255 5.255 0 0 1-1.921-7.165v.027Zm19.362 4.499-6.805-3.952L18.639 9.4a.089.089 0 0 1 .083 0l5.635 3.256a5.243 5.243 0 0 1-.789 9.455v-6.623a.922.922 0 0 0-.475-.778Zm2.346-3.527-.166-.1-5.569-3.245a.905.905 0 0 0-.916 0l-6.81 3.93V9.047a.078.078 0 0 1 .032-.072l5.636-3.25a5.249 5.249 0 0 1 7.793 5.436v.022Zm-14.748 4.824-2.357-1.358a.093.093 0 0 1-.044-.066V8.087a5.249 5.249 0 0 1 8.605-4.03l-.166.094-5.574 3.218a.927.927 0 0 0-.458.795l-.006 7.843Zm1.28-2.76 3.036-1.75 3.042 1.75v3.5l-3.03 1.75-3.042-1.75-.006-3.5Z"/></g><defs><clipPath id="a"><path fill="#fff" d="M1 1h28v28H1z"/></clipPath></defs></svg>