<svg xmlns="http://www.w3.org/2000/svg" width="28" height="28" fill="none"><path fill="#386FA2" fill-rule="evenodd" d="M4.958 0h18.084C25.783 0 28 2.273 28 5.085v17.83C28 25.727 25.783 28 23.042 28H4.958C2.217 28 0 25.727 0 22.915V5.085C0 2.273 2.217 0 4.958 0ZM6.3 19.636V7.323c0-.084.035-.132.117-.132.198 0 .385 0 .653-.012.144-.006.291-.009.443-.012.144-.003.29-.006.444-.011a25.4 25.4 0 0 1 .507-.013c.164-.003.333-.006.508-.011.361-.012.711-.012 1.061-.012.957 0 1.75.12 2.404.37A4.15 4.15 0 0 1 14 8.473c.373.383.665.85.852 1.364.175.502.268 1.017.268 1.556 0 1.029-.233 1.878-.7 2.548a4.01 4.01 0 0 1-1.878 1.46c-.794.3-1.669.407-2.625.407-.28 0-.467 0-.584-.012-.116-.012-.28-.012-.501-.012v3.84a.148.148 0 0 1-.129.168H6.44c-.093 0-.14-.047-.14-.155ZM8.843 9.5v4.02l.035.003c.15.011.29.021.42.021h.619c.455 0 .91-.072 1.341-.215.374-.108.7-.335.957-.634.245-.3.362-.706.362-1.233a2.01 2.01 0 0 0-.269-1.065 1.701 1.701 0 0 0-.816-.682 3.347 3.347 0 0 0-1.377-.24c-.303 0-.572 0-.793.013-.234-.012-.397 0-.479.012Zm12.437 2.884c.397.083.77.215 1.12.406.047.024.105.024.21 0a.149.149 0 0 0 .058-.12v-1.95a.612.612 0 0 0-.023-.143c-.023-.048-.07-.096-.117-.108a4.022 4.022 0 0 0-1.003-.275 9.81 9.81 0 0 0-1.447-.108c-.828 0-1.516.132-2.065.419a2.9 2.9 0 0 0-1.225 1.1 2.87 2.87 0 0 0-.396 1.449c-.012.418.081.837.268 1.22.222.407.525.754.887 1.017a7.066 7.066 0 0 0 1.656.862c.572.227.957.407 1.144.562.186.156.28.311.28.479a.557.557 0 0 1-.315.502c-.21.108-.525.168-.969.168-.466 0-.933-.06-1.376-.18a4.92 4.92 0 0 1-1.447-.586c-.035-.024-.07-.036-.105-.012-.035.024-.047.072-.047.108v2.082c-.011.096.047.18.129.227.373.18.781.311 1.19.383.525.108 1.05.156 1.586.156.84 0 1.54-.132 2.112-.383.525-.216.98-.587 1.307-1.065.303-.467.466-1.03.455-1.592.011-.43-.082-.85-.269-1.232a2.755 2.755 0 0 0-.921-.993 8.358 8.358 0 0 0-1.797-.874c-.28-.12-.56-.251-.828-.395a1.323 1.323 0 0 1-.397-.323.54.54 0 0 1-.117-.31c0-.108.035-.228.094-.324a.598.598 0 0 1 .361-.24c.222-.059.467-.095.7-.083.444 0 .875.06 1.307.156Z" clip-rule="evenodd"/></svg>