<svg xmlns="http://www.w3.org/2000/svg" width="30" height="30" fill="none"><path fill="#6C7EB7" d="M8.762 12.759h-1.18l-.643 3.31h1.047c.695 0 1.213-.131 1.553-.393.34-.262.569-.699.687-1.311.115-.588.063-1.002-.155-1.244-.219-.241-.653-.362-1.309-.362ZM15 7.11C6.716 7.11 0 10.642 0 15s6.716 7.891 15 7.891c8.284 0 15-3.533 15-7.891 0-4.357-6.716-7.89-15-7.89Zm-4.075 9.314a3.032 3.032 0 0 1-1.146.689c-.42.134-.957.204-1.607.204H6.696l-.409 2.102H4.566l1.537-7.908h3.313c.996 0 1.723.262 2.18.785.457.523.595 1.253.412 2.19-.07.371-.198.729-.38 1.059a3.57 3.57 0 0 1-.702.879Zm5.03.893.679-3.498c.078-.398.049-.67-.085-.814-.134-.145-.42-.218-.859-.218h-1.365l-.88 4.532h-1.71l1.538-7.909h1.708l-.409 2.102h1.523c.959 0 1.619.168 1.983.502.363.334.472.875.328 1.623l-.715 3.68h-1.736Zm9.496-2.83a3.48 3.48 0 0 1-.381 1.058 3.57 3.57 0 0 1-.701.879 3.052 3.052 0 0 1-1.146.689c-.42.134-.957.204-1.608.204H20.14l-.409 2.103H18.01l1.537-7.908h3.312c.996 0 1.722.262 2.18.785.457.522.596 1.252.413 2.19Zm-3.244-1.728H21.03l-.645 3.31h1.047c.697 0 1.214-.131 1.553-.393.34-.262.568-.699.688-1.311.116-.588.062-1.002-.156-1.244-.217-.241-.655-.362-1.308-.362Z"/></svg>