<svg xmlns="http://www.w3.org/2000/svg" width="30" height="30" fill="none"><path fill="#2F638E" d="M20.819 2a11.4 11.4 0 0 0-3.1.453l-.07.023a12.287 12.287 0 0 0-1.925-.186c-1.325-.022-2.463.3-3.381.835-.905-.314-2.781-.855-4.759-.747-1.377.075-2.88.494-3.994 1.67-1.11 1.175-1.697 2.994-1.574 5.47.034.682.229 1.796.552 3.238.322 1.442.776 3.131 1.342 4.671.566 1.541 1.185 2.925 2.154 3.866.484.471 1.15.867 1.935.835.551-.023 1.05-.265 1.48-.621.209.275.433.396.636.507.257.14.506.236.765.3.465.115 1.26.27 2.192.112.317-.053.651-.157.984-.304.013.371.027.735.042 1.102.046 1.166.075 2.243.425 3.186.056.155.21.949.818 1.65.607.702 1.798 1.14 3.153.85.957-.206 2.173-.575 2.98-1.724.8-1.137 1.16-2.767 1.23-5.41.018-.143.04-.265.062-.379l.19.017h.023c1.02.046 2.127-.099 3.052-.529.819-.379 1.439-.762 1.89-1.443.112-.169.236-.372.27-.723.034-.351-.168-.9-.502-1.153-.67-.509-1.09-.315-1.541-.222a7.05 7.05 0 0 1-1.352.164c1.3-2.19 2.233-4.517 2.765-6.575.315-1.215.491-2.336.506-3.316.015-.98-.065-1.847-.652-2.597C25.58 2.675 23 2.027 21.005 2.005c-.063-.002-.124-.003-.186-.002V2Zm-.053.72c1.888-.018 4.3.512 6.03 2.725.39.497.506 1.224.492 2.12-.014.894-.18 1.965-.482 3.138-.587 2.273-1.697 4.922-3.26 7.3.056.038.116.07.178.096.327.135 1.07.25 2.554-.054.374-.079.647-.132.93.084a.584.584 0 0 1 .207.478.792.792 0 0 1-.147.378c-.287.431-.852.84-1.578 1.176-.643.3-1.564.456-2.38.465-.41.004-.788-.027-1.109-.128l-.02-.007c-.124 1.192-.408 3.547-.594 4.621-.148.867-.408 1.555-.905 2.07-.495.516-1.195.826-2.138 1.029-1.168.25-2.02-.02-2.569-.482-.547-.461-.798-1.073-.95-1.448-.103-.259-.157-.594-.208-1.042-.052-.447-.09-.995-.116-1.613a57.89 57.89 0 0 1-.034-2.838 3.444 3.444 0 0 1-1.746.855c-.775.131-1.467.002-1.88-.102a2.558 2.558 0 0 1-.585-.226c-.191-.102-.373-.218-.495-.446a.63.63 0 0 1-.064-.429.686.686 0 0 1 .245-.372c.223-.181.518-.283.962-.375.809-.167 1.091-.28 1.264-.416.146-.117.311-.354.604-.7a1.176 1.176 0 0 1-.004-.046 3.329 3.329 0 0 1-1.496-.403c-.169.178-1.03 1.09-2.081 2.354-.442.528-.93.832-1.446.854-.515.022-.98-.238-1.377-.621-.79-.769-1.422-2.09-1.972-3.585-.55-1.494-.996-3.158-1.313-4.575-.318-1.418-.506-2.56-.533-3.112-.118-2.342.43-3.92 1.369-4.916.94-.996 2.23-1.373 3.486-1.445 2.256-.13 4.398.657 4.831.826.835-.567 1.91-.92 3.254-.898a8.314 8.314 0 0 1 1.89.246l.023-.01c.273-.096.55-.177.832-.241a10.829 10.829 0 0 1 2.33-.283V2.72Zm.17.754h-.164a9.833 9.833 0 0 0-1.917.216c1.402.62 2.46 1.577 3.207 2.531.518.66.946 1.387 1.273 2.16.124.297.207.548.255.743.023.097.039.18.044.265.003.043.005.087-.013.162 0 .003-.006.011-.007.015.034.985-.21 1.653-.24 2.594-.022.682.152 1.483.195 2.357.04.821-.058 1.723-.591 2.609.044.054.085.108.128.162 1.41-2.222 2.427-4.68 2.97-6.776.29-1.129.444-2.151.458-2.961.01-.81-.14-1.397-.332-1.643-1.51-1.93-3.553-2.422-5.265-2.435Zm-5.388.288c-1.33.003-2.284.405-3.007 1.007-.746.622-1.247 1.473-1.575 2.345-.39 1.035-.524 2.037-.577 2.716l.014-.009a5.83 5.83 0 0 1 1.494-.58c.565-.13 1.174-.17 1.725.043.551.214 1.007.717 1.172 1.48.792 3.664-.246 5.026-.629 6.055-.145.372-.27.753-.372 1.14.048-.012.097-.026.145-.03.27-.022.481.068.607.122.385.16.65.495.793.877.037.1.064.208.08.32a.378.378 0 0 1 .022.142 62.004 62.004 0 0 0 .014 4.206c.026.605.065 1.138.113 1.559.048.42.117.74.16.847.145.36.355.832.735 1.152.38.32.926.533 1.923.32.864-.186 1.397-.444 1.754-.814.356-.37.568-.885.704-1.674.204-1.181.613-4.607.663-5.251-.023-.486.05-.86.205-1.145.16-.292.407-.47.62-.568.108-.048.208-.08.29-.104a6.708 6.708 0 0 0-.273-.366 5.012 5.012 0 0 1-.75-1.236 9.35 9.35 0 0 0-.289-.544c-.15-.27-.338-.607-.537-.986-.396-.76-.826-1.68-1.05-2.576-.223-.896-.256-1.823.316-2.477.506-.58 1.395-.82 2.73-.686-.04-.118-.064-.216-.13-.373a8.793 8.793 0 0 0-1.171-1.985c-1.131-1.446-2.961-2.879-5.79-2.925h-.13v-.002Zm-7.472.058a7.72 7.72 0 0 0-.428.013c-1.136.065-2.21.395-2.979 1.209-.77.815-1.276 2.15-1.165 4.36.02.42.203 1.591.516 2.984.312 1.393.754 3.032 1.285 4.48.532 1.448 1.176 2.708 1.788 3.304.309.298.576.418.82.408.244-.01.537-.151.896-.582a48.638 48.638 0 0 1 2.036-2.304 3.934 3.934 0 0 1-1.313-3.544c.116-.832.132-1.609.119-2.223-.014-.599-.057-.997-.057-1.245v-.035c-.001-1.296.224-2.58.665-3.798.315-.837.784-1.688 1.487-2.376-.69-.228-1.917-.574-3.244-.64a8.536 8.536 0 0 0-.428-.01h.002Zm13.947 5.943c-.763.01-1.192.207-1.417.464-.318.366-.349 1.007-.15 1.797.196.79.603 1.675.986 2.41.191.368.377.698.526.967.151.27.261.461.329.625.062.15.13.283.2.407.296-.625.349-1.238.319-1.877-.04-.79-.223-1.6-.196-2.418.03-.958.22-1.581.236-2.321a6.518 6.518 0 0 0-.833-.054Zm-9.263.129c-.233.002-.466.03-.693.083-.453.11-.889.28-1.297.505-.138.074-.27.16-.393.257l-.024.022c.006.165.039.563.053 1.149.013.641-.003 1.46-.127 2.345-.268 1.923 1.128 3.516 2.768 3.518.096-.394.253-.795.41-1.217.457-1.23 1.356-2.128.6-5.631-.125-.574-.37-.806-.707-.937a1.658 1.658 0 0 0-.59-.094Zm8.907.23h.056c.074.002.143.01.203.024a.46.46 0 0 1 .155.062.184.184 0 0 1 .084.124v.009a.27.27 0 0 1-.04.152.756.756 0 0 1-.124.168.762.762 0 0 1-.434.239.664.664 0 0 1-.462-.116.685.685 0 0 1-.146-.133.293.293 0 0 1-.07-.143.193.193 0 0 1 .047-.143.43.43 0 0 1 .131-.102 1.45 1.45 0 0 1 .6-.145v.003Zm-8.798.188c.06 0 .123.006.187.015.172.024.325.07.442.137.057.03.108.07.15.12.023.026.04.056.05.089.01.033.014.068.01.102a.34.34 0 0 1-.084.173.728.728 0 0 1-.16.146.72.72 0 0 1-.505.127.82.82 0 0 1-.472-.256.8.8 0 0 1-.133-.184.315.315 0 0 1-.046-.2c.017-.121.117-.184.215-.219a.974.974 0 0 1 .345-.045l.001-.005Zm10.193 8.261-.004.002c-.165.06-.301.084-.416.134a.51.51 0 0 0-.269.241c-.07.13-.131.36-.113.75.05.035.107.061.166.078.193.059.516.097.876.091.717-.008 1.6-.175 2.07-.393a4.446 4.446 0 0 0 1.06-.692c-1.568.324-2.453.237-2.997.013a1.481 1.481 0 0 1-.373-.225v.001Zm-9.035.106h-.024c-.06.006-.146.026-.314.212-.391.438-.528.714-.851.972-.323.256-.743.393-1.58.566a2.16 2.16 0 0 0-.52.162c.033.027.03.033.08.06.122.067.28.126.407.159.36.09.951.195 1.569.09.617-.106 1.26-.402 1.808-1.17.094-.133.104-.329.027-.539-.079-.21-.251-.392-.373-.442a.734.734 0 0 0-.23-.068v-.002Z"/></svg>