<svg xmlns="http://www.w3.org/2000/svg" width="30" height="30" fill="none"><g clip-path="url(#a)"><path fill="#00005B" d="M5.313 0h19.375C27.625 0 30 2.436 30 5.449V24.55C30 27.564 27.625 30 24.687 30H5.313C2.376 30 0 27.564 0 24.551V5.45C0 2.436 2.375 0 5.313 0Z"/><path fill="#99F" d="M7.125 21.026V7.82c0-.09.037-.142.125-.142.213 0 .412 0 .7-.012.3-.013.612-.013.95-.026.338-.013.7-.013 1.088-.026.387-.012.762-.012 1.137-.012C12.15 7.603 13 7.73 13.7 8c.625.218 1.2.577 1.675 1.051.4.41.712.91.913 1.462a5.02 5.02 0 0 1 .287 1.667c0 1.102-.25 2.012-.75 2.73s-1.2 1.257-2.012 1.564c-.85.32-1.788.436-2.813.436-.3 0-.5 0-.625-.013-.125-.012-.3-.012-.537-.012V21a.159.159 0 0 1-.138.18H7.275c-.1 0-.15-.052-.15-.167v.013Zm2.725-10.86v4.308c.175.013.338.026.488.026H11a4.56 4.56 0 0 0 1.438-.23c.4-.116.75-.36 1.024-.68.263-.32.388-.757.388-1.32a2.152 2.152 0 0 0-.287-1.142 1.824 1.824 0 0 0-.876-.73 3.586 3.586 0 0 0-1.474-.257c-.325 0-.613 0-.85.013-.25-.013-.425 0-.513.013ZM18.375 10.923h2.188c.125 0 .225.09.262.205.038.103.063.205.075.32a4.373 4.373 0 0 1 .088.86c.375-.449.825-.82 1.337-1.103a3.798 3.798 0 0 1 1.9-.5c.087-.013.162.051.175.141v2.551c0 .103-.063.142-.2.142a5.303 5.303 0 0 0-1.35.128 5.054 5.054 0 0 0-1.05.346c-.238.115-.463.27-.637.474v6.539c0 .128-.05.18-.163.18h-2.462a.174.174 0 0 1-.2-.155v-7.154c0-.307 0-.628-.013-.961-.012-.333-.012-.667-.025-1 0-.295-.025-.577-.05-.872-.012-.064.025-.128.087-.14 0-.014.026-.014.038 0Z"/></g><defs><clipPath id="a"><path fill="#fff" d="M0 0h30v30H0z"/></clipPath></defs></svg>