<svg xmlns="http://www.w3.org/2000/svg" width="30" height="30" fill="none"><path fill="url(#a)" d="m6.725 26.648-6-10.392a2.628 2.628 0 0 1 0-2.628l6-10.391A2.628 2.628 0 0 1 9 1.923h11.998a2.628 2.628 0 0 1 2.277 1.314l5.999 10.391a2.628 2.628 0 0 1 0 2.628l-6 10.392A2.627 2.627 0 0 1 21 27.962H9.001a2.628 2.628 0 0 1-2.276-1.315Z"/><path fill="#000" d="m28.04 18.503-7.276-7.275-1.34.277-3.337-3.337-1.068 1.997-.579 2.31.98.98-1.882.385-2.582-2.581-1.753 1.685 3.228 3.228-3.421 2.72 9.185 9.185 4.476-.043 5.369-9.531Z" opacity=".07"/><path fill="#fff" d="M19.918 13.32a1.217 1.217 0 1 0 0-2.434 1.217 1.217 0 0 0 0 2.434ZM10.082 13.32a1.217 1.217 0 1 0 0-2.434 1.217 1.217 0 0 0 0 2.434ZM15 21.838a1.217 1.217 0 1 0 0-2.434 1.217 1.217 0 0 0 0 2.434ZM15 16.908a1.966 1.966 0 1 0 0-3.932 1.966 1.966 0 0 0 0 3.932ZM10.082 19.326a1.545 1.545 0 1 0 0-3.089 1.545 1.545 0 0 0 0 3.09ZM19.918 19.326a1.545 1.545 0 1 0 0-3.089 1.545 1.545 0 0 0 0 3.09ZM15 10.808a1.545 1.545 0 1 0 0-3.09 1.545 1.545 0 0 0 0 3.09Z"/><defs><linearGradient id="a" x1="15" x2="15" y1="1.923" y2="27.921" gradientUnits="userSpaceOnUse"><stop stop-color="#4387FD"/><stop offset="1" stop-color="#4683EA"/></linearGradient></defs></svg>