<svg xmlns="http://www.w3.org/2000/svg" width="30" height="30" fill="none"><path fill="#386FA2" d="M18.398 2.132c-1.089-.18-2.683-.262-3.765-.257a18.228 18.228 0 0 0-3.027.257c-2.68.468-3.168 1.447-3.168 3.254V7.5H15v.938H6.306c-2.435 0-4.412 2.91-4.431 6.51V15c0 .63.06 1.258.183 1.875.545 2.712 2.24 4.688 4.248 4.688H7.5v-3.165c0-1.834 1.221-3.512 3.223-3.873l.578-.072h7.097a3.28 3.28 0 0 0 .883-.117 3.075 3.075 0 0 0 2.282-2.988V5.386c0-1.695-1.447-2.973-3.165-3.254Zm-6.976 4.05a1.194 1.194 0 1 1-.008-2.388 1.194 1.194 0 0 1 .008 2.388Z"/><path fill="#F9D245" d="M27.848 12.715c-.627-2.497-2.25-4.277-4.154-4.277h-1.038v2.78c0 2.318-1.523 3.997-3.383 4.285a3.72 3.72 0 0 1-.567.044h-7.1c-.3 0-.6.038-.892.114-1.307.343-2.277 1.43-2.277 2.841v5.963c0 1.7 1.708 2.695 3.383 3.183 2.005.582 4.188.688 6.587 0 1.593-.456 3.155-1.376 3.155-3.183V22.5H15v-.938h8.694c1.725 0 3.22-1.46 3.952-3.592a9.19 9.19 0 0 0 .479-2.97 9.407 9.407 0 0 0-.277-2.285Zm-9.302 10.957a1.194 1.194 0 1 1 .007 2.389 1.194 1.194 0 0 1-.008-2.39Z"/></svg>