<svg xmlns="http://www.w3.org/2000/svg" width="30" height="30" fill="none"><g clip-path="url(#a)"><path fill="#F60" d="M28 11.99h-9.419a.857.857 0 0 1-.856-.856V1.317C17.725.59 17.135 0 16.409 0h-3.363c-.727 0-1.316.59-1.316 1.317v9.757a.92.92 0 0 1-.915.92l-3.087.015a.92.92 0 0 1-.925-.922l.02-9.768A1.316 1.316 0 0 0 5.505 0h-3.36C1.42 0 .83.59.83 1.317v27.488c0 .646.523 1.17 1.169 1.17H28c.646 0 1.169-.524 1.169-1.17V13.16c0-.646-.523-1.17-1.17-1.17Zm-4.416 10.32c0 .847-.686 1.533-1.533 1.533h-2.657a1.533 1.533 0 0 1-1.533-1.532v-2.658c0-.846.686-1.532 1.533-1.532h2.657c.847 0 1.533.686 1.533 1.532v2.658Z"/></g><defs><clipPath id="a"><path fill="#fff" d="M0 0h30v30H0z"/></clipPath></defs></svg>