<svg xmlns="http://www.w3.org/2000/svg" width="30" height="30" fill="none"><path fill="#5DDCF2" d="M24.062 10.59c-.3-.103-.601-.199-.905-.287.05-.205.097-.411.14-.619.685-3.334.237-6.02-1.293-6.904-1.465-.848-3.867.036-6.29 2.15a19.07 19.07 0 0 0-.701.645 13.68 13.68 0 0 0-.469-.432c-2.54-2.26-5.086-3.212-6.614-2.325-1.465.85-1.9 3.375-1.283 6.535.062.312.13.623.208.933-.35.1-.698.209-1.041.328-2.975 1.04-4.877 2.671-4.877 4.362 0 1.747 2.042 3.5 5.143 4.562.252.085.506.165.762.238-.083.332-.157.667-.22 1.006-.587 3.105-.13 5.57 1.332 6.416 1.51.872 4.043-.025 6.512-2.187.196-.17.39-.351.586-.542.247.239.5.47.762.695 2.39 2.062 4.751 2.894 6.21 2.047 1.51-.875 2-3.524 1.363-6.746a16.3 16.3 0 0 0-.169-.753c.178-.053.353-.108.524-.164 3.222-1.07 5.322-2.801 5.322-4.57-.002-1.7-1.964-3.34-5.002-4.389Zm-7.559-4.752c2.076-1.81 4.017-2.526 4.902-2.015.941.545 1.308 2.74.716 5.618-.04.188-.081.375-.127.561a28.577 28.577 0 0 0-3.76-.595 28.197 28.197 0 0 0-2.377-2.974c.21-.204.425-.402.645-.595h.002ZM9.242 16.421a35.34 35.34 0 0 0 1.68 2.906 25.507 25.507 0 0 1-2.592-.418c.249-.803.555-1.639.912-2.488Zm0-2.832c-.352-.831-.65-1.65-.894-2.44.803-.18 1.659-.326 2.55-.438A34.813 34.813 0 0 0 9.24 13.59h.002Zm.639 1.416a34.233 34.233 0 0 1 2.56-4.448 34.02 34.02 0 0 1 5.127.001c.476.707.928 1.43 1.355 2.168.426.739.83 1.493 1.212 2.262-.376.775-.78 1.535-1.21 2.281a40 40 0 0 1-1.347 2.182c-.835.059-1.7.091-2.578.091a39.16 39.16 0 0 1-2.546-.08 34.093 34.093 0 0 1-2.575-4.457h.002Zm10.085 2.866c.283-.491.555-.99.815-1.493.358.81.673 1.637.945 2.48-.866.194-1.742.344-2.624.447.297-.472.585-.95.864-1.434Zm.804-4.281c-.26-.495-.53-.983-.81-1.465a35.215 35.215 0 0 0-.854-1.41c.897.114 1.757.265 2.564.45-.26.822-.56 1.632-.9 2.425Zm-5.756-6.296a25.78 25.78 0 0 1 1.655 2.002 34.958 34.958 0 0 0-3.325 0 26.426 26.426 0 0 1 1.67-2.002Zm-6.48-3.435c.942-.546 3.022.234 5.216 2.184.14.125.28.255.421.39a28.794 28.794 0 0 0-2.394 2.972c-1.262.114-2.516.31-3.753.586a18.095 18.095 0 0 1-.194-.869c-.53-2.708-.179-4.75.705-5.263Zm-1.37 14.757c-.235-.067-.467-.14-.695-.218-1.371-.468-2.504-1.08-3.282-1.746-.696-.597-1.048-1.193-1.048-1.676 0-1.026 1.527-2.335 4.073-3.223.32-.111.643-.213.968-.305a28.914 28.914 0 0 0 1.371 3.56 29.442 29.442 0 0 0-1.388 3.608Zm6.51 5.488c-1.091.957-2.184 1.634-3.148 1.976-.866.307-1.556.315-1.972.075-.888-.513-1.257-2.493-.753-5.149.06-.312.128-.625.205-.937 1.25.27 2.516.453 3.79.55a29.346 29.346 0 0 0 2.414 2.988 13.01 13.01 0 0 1-.535.497Zm1.373-1.36a26.958 26.958 0 0 1-1.692-2.03c.538.021 1.087.032 1.645.032.573 0 1.14-.013 1.7-.038a25.737 25.737 0 0 1-1.653 2.036Zm7.296 1.675c-.168.905-.505 1.508-.921 1.75-.887.514-2.782-.154-4.826-1.918a19.158 19.158 0 0 1-.707-.644 28.386 28.386 0 0 0 2.357-3 27.992 27.992 0 0 0 3.809-.589c.057.232.108.46.152.682.282 1.424.322 2.712.136 3.719Zm1.02-6.014c-.154.05-.312.1-.473.148a28.3 28.3 0 0 0-1.424-3.57 28.22 28.22 0 0 0 1.369-3.52c.287.084.567.172.836.265 2.602.898 4.19 2.227 4.19 3.248 0 1.09-1.715 2.504-4.498 3.429Z"/><path fill="#5DDCF2" d="M15 17.493a2.52 2.52 0 1 0 .016-5.039 2.52 2.52 0 0 0-.016 5.04Z"/></svg>