<svg xmlns="http://www.w3.org/2000/svg" width="30" height="30" fill="none"><path fill="#D02D1C" d="M13.6 5.007c0 .008.122.24.276.525.15.28.26.52.244.532a20.57 20.57 0 0 1-.943.352c-.505.18-.911.336-.904.343.007.007.58.066 1.27.13.833.078 1.271.134 1.302.165.027.027.217.336.426.679l.376.631.066-.158c.036-.084.15-.36.256-.608l.186-.453 1.002-.106c.547-.06 1.037-.106 1.088-.106.048-.004.087-.016.087-.036 0-.016-.37-.17-.829-.34-.454-.169-.829-.315-.829-.319 0-.003.1-.244.217-.532.118-.288.209-.532.201-.54-.008-.013-.394.105-.851.255l-.836.273-.887-.351c-.872-.343-.92-.359-.92-.336h.001Zm5.51 3c-1.06.422-1.932.774-1.94.782-.009.008.781.328 1.755.715l1.767.698.19-.075c1.968-.766 3.76-1.48 3.751-1.488-.027-.032-3.51-1.396-3.55-1.396-.027.004-.914.347-1.972.766v-.001ZM8.926 7.599c-1.018.106-1.873.403-2.236.778-.25.256-.289.474-.135.737.229.394.979.727 2.016.896.466.078 1.834.066 2.308-.016 1.109-.193 1.827-.548 1.996-.994.063-.166.063-.19 0-.352-.165-.433-.872-.793-1.917-.974-.529-.09-1.515-.126-2.032-.075Zm18.96 1.227c-.052.067-.241.217-.422.34-.537.346-1.232.661-5.54 2.516-3.029 1.301-3.802 1.644-4.85 2.15-1.164.555-1.646.709-2.23.709-.525 0-.836-.09-1.815-.525a306.74 306.74 0 0 0-3.55-1.495c-6.829-2.84-6.955-2.9-7.322-3.294l-.154-.169v2.687l.174.165c.166.162.73.502.932.56.054.016.426.17.828.343.403.174 2.363.994 4.36 1.827 3.302 1.377 4.054 1.692 5.178 2.185.596.265.927.331 1.488.312.41-.015.532-.04.892-.162.232-.078.635-.249.895-.378.857-.43 1.894-.888 6.024-2.667 3.886-1.677 4.39-1.909 4.812-2.2.434-.308.415-.233.415-1.729 0-.714-.004-1.298-.012-1.298a.694.694 0 0 0-.102.123h-.002Zm-13.603 1.752c-1.59.244-2.907.453-2.931.462-.036.012 3.961 1.692 4.13 1.735.04.012 1.827-2.56 1.827-2.627 0-.036.003-.04-3.026.43Zm13.625 2.659c-.036.06-.201.205-.363.32-.517.354-1.294.709-6.017 2.74-2.717 1.172-3.57 1.548-4.379 1.942-1.31.635-1.625.737-2.327.733-.544-.003-.88-.09-1.601-.418-.695-.319-1.472-.646-4.593-1.94C3.2 14.36 2.572 14.078 2.19 13.708L2 13.53v2.643l.213.201c.348.324.312.308 6.138 2.735a361.94 361.94 0 0 1 4.478 1.881c.86.387 1.109.478 1.448.548.793.162 1.38.031 2.667-.596.835-.406 1.857-.86 4.33-1.924 4.703-2.028 5.863-2.548 6.205-2.777.123-.087.289-.225.37-.316l.147-.162v-1.322c0-.726-.003-1.322-.012-1.322a.86.86 0 0 0-.078.115l.001.001Zm-.043 4.327c-.312.39-.935.69-5.783 2.777-3.164 1.364-4.126 1.79-5.167 2.288-1.094.52-1.452.63-2.083.63-.43 0-.868-.102-1.353-.315-1.133-.497-1.878-.812-5.184-2.189-3.76-1.566-4.963-2.074-5.365-2.276-.375-.189-.758-.457-.844-.595L2 17.757v1.345c0 1.543-.027 1.428.387 1.708.458.307 1.136.608 5.65 2.48 3.156 1.31 4.292 1.788 4.852 2.04 1.144.514 1.448.596 2.086.56.584-.027.967-.153 1.977-.634 1.053-.505 1.83-.852 5.266-2.332 4.773-2.055 5.29-2.303 5.653-2.722L28 20.06v-1.317c0-.727-.004-1.322-.009-1.322a.914.914 0 0 0-.126.142Z"/></svg>