<svg xmlns="http://www.w3.org/2000/svg" width="30" height="30" fill="none"><g clip-path="url(#a)"><path fill="#764ABC" d="M20.787 20.868c1.107-.12 1.947-1.121 1.909-2.323-.039-1.201-.993-2.163-2.138-2.163h-.077c-1.183.04-2.1 1.082-2.061 2.323.038.601.267 1.122.61 1.482-1.297 2.684-3.283 4.646-6.26 6.289-2.024 1.121-4.123 1.522-6.223 1.241-1.718-.24-3.054-1.041-3.894-2.363-1.222-1.962-1.336-4.085-.305-6.208.725-1.522 1.87-2.643 2.596-3.204a22.463 22.463 0 0 1-.497-2.043c-5.535 4.206-4.963 9.893-3.283 12.577 1.26 2.002 3.818 3.244 6.643 3.244.763 0 1.527-.08 2.29-.28 4.887-1.002 8.59-4.046 10.69-8.572Zm6.719-4.966c-2.901-3.565-7.177-5.527-12.064-5.527h-.61a2.09 2.09 0 0 0-1.871-1.202h-.077c-1.183.04-2.1 1.082-2.061 2.323.038 1.202.992 2.163 2.138 2.163h.076c.84-.04 1.565-.6 1.87-1.362h.688c2.901 0 5.65.881 8.132 2.603 1.908 1.322 3.283 3.045 4.046 5.127.65 1.682.61 3.325-.076 4.726-1.07 2.123-2.863 3.285-5.23 3.285-1.527 0-2.978-.481-3.742-.841-.42.4-1.183 1.04-1.718 1.442 1.642.8 3.322 1.241 4.925 1.241 3.665 0 6.376-2.123 7.406-4.245 1.107-2.324 1.031-6.329-1.832-9.733ZM8.112 21.549c.039 1.202.993 2.163 2.138 2.163h.077c1.183-.04 2.1-1.081 2.061-2.323-.038-1.202-.993-2.163-2.138-2.163h-.076c-.076 0-.191 0-.267.04-1.566-2.723-2.215-5.687-1.985-8.891.152-2.404.916-4.486 2.252-6.209 1.107-1.482 3.245-2.202 4.696-2.242 4.046-.08 5.764 5.206 5.879 7.33.496.12 1.336.4 1.909.6C22.198 3.366 18.381 0 14.716 0c-3.436 0-6.605 2.604-7.865 6.449-1.756 5.126-.61 10.053 1.527 13.938-.19.28-.305.72-.267 1.161Z"/></g><defs><clipPath id="a"><path fill="#fff" d="M0 0h30v30H0z"/></clipPath></defs></svg>