<svg xmlns="http://www.w3.org/2000/svg" width="30" height="30" fill="none"><path fill="#F04939" d="M6.961 5.014c0 3.751 2.33 6.002 6.99 7.187l4.937 1.146c4.424 1.026 7.11 3.554 7.11 7.661.039 1.777-.553 3.515-1.62 4.937 0-4.108-2.133-6.32-7.227-7.662l-4.858-1.106c-3.91-.869-6.912-2.962-6.912-7.424 0-1.698.553-3.397 1.58-4.74Z"/><path fill="#F37368" d="M21.337 19.981c2.093 1.343 3.041 3.238 3.041 5.963-1.777 2.252-4.818 3.476-8.412 3.476-6.043 0-10.348-3.002-11.256-8.175h5.806c.75 2.37 2.725 3.475 5.41 3.475 3.2.04 5.372-1.698 5.411-4.739ZM6.961 4.974C8.66 2.763 11.582 1.42 15.136 1.42c6.201 0 9.756 3.278 10.664 7.859h-5.608C19.56 7.462 18.02 6.04 15.216 6.04c-3.042.04-5.095 1.778-5.214 4.542-2.035-1.122-3.12-3.317-3.04-5.608Z"/></svg>