<svg xmlns="http://www.w3.org/2000/svg" width="30" height="30" fill="none"><g clip-path="url(#a)"><path fill="#CD6799" d="M25.817 16.926a6.206 6.206 0 0 0-2.716.63c-.28-.553-.558-1.046-.608-1.408-.055-.421-.12-.679-.055-1.183.066-.504.362-1.22.356-1.276-.005-.055-.065-.312-.668-.317-.602-.006-1.122.115-1.183.274a6.6 6.6 0 0 0-.252.892c-.104.548-1.204 2.503-1.834 3.527-.203-.4-.378-.75-.416-1.03-.055-.421-.12-.679-.055-1.183.066-.503.361-1.22.356-1.276-.006-.054-.066-.312-.668-.317-.603-.006-1.123.115-1.183.274-.06.159-.126.53-.252.892s-1.588 3.626-1.972 4.47a25.36 25.36 0 0 1-.487 1.012s-.005.017-.022.044c-.104.203-.164.312-.164.312v.006c-.082.148-.17.285-.214.285-.033 0-.093-.395.011-.931.22-1.134.74-2.898.734-2.958 0-.033.098-.34-.34-.498-.427-.159-.58.104-.618.104-.039 0-.066.093-.066.093s.476-1.982-.91-1.982c-.864 0-2.058.947-2.65 1.801l-2.015 1.101c-.323.18-.657.361-.97.531-.021-.022-.043-.049-.065-.07-1.676-1.792-4.776-3.057-4.644-5.461.05-.876.35-3.176 5.953-5.97 4.61-2.272 8.28-1.642 8.915-.246.91 1.994-1.966 5.696-6.73 6.232-1.818.203-2.771-.498-3.012-.76-.252-.275-.29-.291-.384-.236-.153.082-.054.328 0 .47.143.373.729 1.03 1.72 1.353.876.285 3.007.444 5.586-.553 2.886-1.117 5.142-4.222 4.48-6.823-.663-2.64-5.044-3.51-9.19-2.038-2.464.877-5.137 2.257-7.059 4.053C.242 10.902-.119 12.758.03 13.536c.531 2.76 4.337 4.556 5.86 5.887-.077.044-.148.082-.208.115-.762.378-3.664 1.895-4.387 3.5-.822 1.818.131 3.121.761 3.296 1.955.543 3.965-.432 5.044-2.042 1.079-1.61.947-3.702.449-4.66-.005-.012-.011-.023-.022-.034l.597-.35c.389-.23.772-.444 1.1-.619-.185.51-.322 1.117-.388 1.993-.082 1.03.34 2.366.893 2.892.246.23.536.236.723.236.646 0 .936-.537 1.26-1.172.393-.778.75-1.682.75-1.682s-.444 2.443.76 2.443c.439 0 .882-.57 1.08-.86v.006l.032-.055.072-.115v-.011a47.35 47.35 0 0 0 1.155-2.158c.756-1.49 1.484-3.352 1.484-3.352s.066.455.29 1.21c.132.444.406.932.625 1.403-.175.246-.285.383-.285.383l.005.006c-.142.186-.295.388-.465.585-.597.712-1.309 1.528-1.407 1.764-.116.28-.088.482.13.646.16.12.444.137.735.12.536-.038.914-.17 1.1-.251.29-.104.63-.263.948-.499.586-.432.942-1.051.909-1.867-.016-.45-.164-.898-.345-1.32.055-.077.104-.153.159-.23.925-1.353 1.643-2.837 1.643-2.837s.066.455.29 1.21c.11.384.334.8.531 1.205-.87.707-1.407 1.528-1.599 2.065-.345.997-.077 1.446.433 1.55.23.05.558-.06.8-.165a3.64 3.64 0 0 0 1.012-.52c.586-.432 1.15-1.035 1.118-1.85a3.5 3.5 0 0 0-.252-1.096c.739-.307 1.692-.477 2.908-.334 2.606.307 3.121 1.933 3.023 2.618-.099.684-.647 1.057-.827 1.172-.181.115-.241.153-.225.235.022.12.11.115.263.093.214-.038 1.37-.553 1.419-1.813.082-1.61-1.452-3.368-4.163-3.351Zm-20.11 6.78c-.864.942-2.07 1.298-2.59.996-.558-.323-.339-1.714.723-2.71.647-.608 1.48-1.172 2.032-1.517.126-.077.312-.187.537-.324l.06-.032.132-.082c.388 1.423.016 2.678-.893 3.669Zm6.299-4.283c-.301.734-.931 2.612-1.315 2.508-.328-.087-.53-1.511-.065-2.919.235-.706.734-1.55 1.024-1.878.47-.526.991-.701 1.117-.487.159.279-.575 2.316-.761 2.776Zm5.197 2.486c-.126.066-.247.11-.301.077-.039-.022.054-.11.054-.11s.652-.7.91-1.018c.148-.186.323-.405.509-.652v.072c0 .837-.81 1.401-1.172 1.631Zm4.009-.914c-.093-.066-.077-.285.235-.97.12-.268.405-.717.893-1.15.055.176.093.346.087.504-.005 1.057-.76 1.452-1.215 1.616Z"/></g><defs><clipPath id="a"><path fill="#fff" d="M0 0h30v30H0z"/></clipPath></defs></svg>