<svg xmlns="http://www.w3.org/2000/svg" width="30" height="30" fill="none"><path fill="#34BDB2" fill-rule="evenodd" d="M28 2H2v26h26V2ZM14.924 9.445c1.594-.028 2.813.599 4.185 1.395.354-.468.669-.87.985-1.275.317-.405.634-.811.994-1.287-2.702-1.736-4.756-2.916-8.482-1.764-2.425.75-3.415 3.16-3.415 4.352-.148 2.033.731 3.759 2.892 4.641l.808.334c.907.375 1.824.755 2.742 1.078 1.001.353 2.028.986 1.802 2.165-.25 1.308-1.512 1.36-2.625 1.265-1.114-.095-2.033-.555-3.007-1.044a22.238 22.238 0 0 0-1.267-.602c-.328.499-.682.92-1.037 1.34-.356.423-.713.846-1.043 1.35 2.612 1.673 5.705 2.873 8.889 2.085 2.437-.602 3.97-2.43 4.149-4.978.14-2.002-1.046-3.563-3.358-4.526l-.978-.412c-.898-.38-1.761-.747-2.716-1.098-.78-.288-1.531-.756-1.378-1.6.165-.908.948-1.403 1.86-1.42Z" clip-rule="evenodd"/></svg>