<svg xmlns="http://www.w3.org/2000/svg" width="30" height="30" fill="none" xmlns:v="https://vecta.io/nano"><path d="M14.931 2a13.17 13.17 0 0 0-3.223.41c-5.07 1.261-9.093 5.86-9.609 11.073-.639 4.933 1.85 10.071 6.114 12.618 4.183 2.622 9.85 2.516 13.946-.242 3.68-2.393 5.971-6.754 5.834-11.154-.063-4.355-2.502-8.586-6.239-10.823C19.717 2.623 17.322 1.99 14.931 2zm-.068 1.839c5.357-.008 10.604 4.136 11.138 9.679 1.024 6.138-4.066 12.378-10.278 12.559-5.908.59-11.618-4.425-11.786-10.365-.441-4.809 2.726-9.582 7.256-11.17a9.86 9.86 0 0 1 3.67-.702v-.001zm5.515 3.498c-2.911 2.261-5.698 4.672-8.546 7.003l3.923.011 4.624-7.014zm-6.137 8.301l-4.626 7.021c2.917-2.256 5.693-4.685 8.56-7.002l-3.934-.02h0z" fill="#f8f8f8"/></svg>