<svg xmlns="http://www.w3.org/2000/svg" width="30" height="30" fill="none"><g clip-path="url(#a)"><path fill="#0F80CC" d="M23.112 3.326H4.288A2.295 2.295 0 0 0 2 5.615v20.76a2.295 2.295 0 0 0 2.288 2.288h12.403c-.137-6.17 1.968-18.142 6.426-25.355l-.005.018Z"/><path fill="url(#b)" d="M22.426 4H4.288c-.897 0-1.624.731-1.624 1.624v19.245c4.11-1.58 10.274-2.939 14.54-2.874A132.407 132.407 0 0 1 22.43 3.999h-.004Z"/><path fill="#003B57" d="M27.506 2.649c-1.29-1.144-2.851-.686-4.394.677l-.686.669c-2.636 2.791-5.035 7.972-5.84 11.93.287.628.514 1.28.677 1.95l.101.458.1.467s-.022-.091-.118-.366l-.064-.183a2.103 2.103 0 0 0-.042-.1c-.173-.399-.64-1.246-.855-1.612a40.15 40.15 0 0 0-.472 1.47c.604 1.107.97 3.002.97 3.002s-.032-.124-.183-.55c-.137-.38-.805-1.556-.96-1.83-.275 1.007-.38 1.684-.284 1.849.183.32.366.915.526 1.482.247 1.007.449 2.024.604 3.049l.023.283a27.965 27.965 0 0 0 .068 3.433c.12 1.432.344 2.663.628 3.323l.192-.106c-.412-1.3-.586-2.997-.513-4.96.114-2.999.801-6.614 2.078-10.38C21.227 10.868 24.21 6.3 26.948 4.122c-2.495 2.251-5.868 9.538-6.875 12.233-1.13 3.02-1.931 5.858-2.416 8.572.833-2.544 3.524-3.643 3.524-3.643s1.327-1.63 2.865-3.959l-2.952.788-.952.42s2.426-1.478 4.517-2.15c2.87-4.518 5.996-10.939 2.847-13.74"/></g><defs><linearGradient id="b" x1="14.064" x2="14.064" y1="4.425" y2="23.711" gradientUnits="userSpaceOnUse"><stop stop-color="#97D9F6"/><stop offset=".92" stop-color="#0F80CC"/><stop offset="1" stop-color="#0F80CC"/></linearGradient><clipPath id="a"><path fill="#fff" d="M0 0h30v30H0z"/></clipPath></defs></svg>