<svg xmlns="http://www.w3.org/2000/svg" width="30" height="30" fill="none"><g fill="#8E75FF" fill-rule="evenodd" clip-path="url(#a)" clip-rule="evenodd"><path d="M19.925 20.392v-9.697a.626.626 0 0 0-.625-.625H9.614V.06h19.684a.625.625 0 0 1 .625.626v19.706h-9.998Z"/><path d="M9.615.06v10.01H.37a.312.312 0 0 1-.221-.534L9.615.061Zm10.31 29.585v-9.253h9.998l-9.464 9.474a.312.312 0 0 1-.534-.22ZM9.615 10.07h9.997a.313.313 0 0 1 .313.313v10.009H10.24a.625.625 0 0 1-.625-.626V10.07Z" opacity=".405"/></g><defs><clipPath id="a"><path fill="#fff" d="M0 0h30v30H0z"/></clipPath></defs></svg>