<svg xmlns="http://www.w3.org/2000/svg" width="30" height="30" fill="none"><g clip-path="url(#a)"><path fill="url(#b)" d="M17.534 29.279c-.787.956-2.382.432-2.401-.789l-.278-17.854h12.446c2.254 0 3.512 2.512 2.11 4.215L17.534 29.279Z"/><path fill="url(#c)" fill-opacity=".2" d="M17.534 29.279c-.787.956-2.382.432-2.401-.789l-.278-17.854h12.446c2.254 0 3.512 2.512 2.11 4.215L17.534 29.279Z"/><path fill="#3ECF8E" d="M12.473.55c.787-.956 2.382-.432 2.401.788l.122 17.855H2.706c-2.254 0-3.512-2.512-2.11-4.215L12.473.55Z"/></g><defs><linearGradient id="b" x1="14.855" x2="25.794" y1="14.595" y2="19.351" gradientUnits="userSpaceOnUse"><stop stop-color="#249361"/><stop offset="1" stop-color="#3ECF8E"/></linearGradient><linearGradient id="c" x1="9.951" x2="14.718" y1="8.118" y2="17.42" gradientUnits="userSpaceOnUse"><stop/><stop offset="1" stop-opacity="0"/></linearGradient><clipPath id="a"><path fill="#fff" d="M0 0h30v30H0z"/></clipPath></defs></svg>