<svg xmlns="http://www.w3.org/2000/svg" width="30" height="30" fill="none"><path fill="#07B6D5" d="M14.685 6.795C9.84 6.949 8.4 10.41 8.07 12.285c.43-.695 1.785-2.22 3.78-2.22 2.325 0 4.095 2.595 5.175 3.405 1.312.984 3.949 2.284 7.41 1.23 2.76-.84 4.04-3.77 4.32-5.16-1.335 1.815-3.36 2.905-5.865 1.62-1.725-.885-3.015-4.53-8.205-4.365ZM7.83 15.03c-4.845.154-6.285 3.615-6.615 5.49.43-.695 1.785-2.22 3.78-2.22 2.325 0 4.095 2.595 5.175 3.405 1.312.984 3.949 2.283 7.41 1.23 2.76-.84 4.04-3.77 4.32-5.16-1.335 1.815-3.36 2.905-5.865 1.62-1.725-.885-3.015-4.53-8.205-4.365Z"/></svg>