<svg xmlns="http://www.w3.org/2000/svg" width="30" height="30" fill="none"><g clip-path="url(#a)"><path fill="#3178C6" d="M27.07 0H2.93A2.93 2.93 0 0 0 0 2.93v24.14A2.93 2.93 0 0 0 2.93 30h24.14A2.93 2.93 0 0 0 30 27.07V2.93A2.93 2.93 0 0 0 27.07 0Z"/><path fill="#3178C6" d="M27.07 0H2.93A2.93 2.93 0 0 0 0 2.93v24.14A2.93 2.93 0 0 0 2.93 30h24.14A2.93 2.93 0 0 0 30 27.07V2.93A2.93 2.93 0 0 0 27.07 0Z"/><path fill="#fff" fill-rule="evenodd" d="M18.57 23.872v2.934c.477.244 1.041.427 1.692.55.652.122 1.338.183 2.06.183.702 0 1.37-.067 2.003-.202a4.91 4.91 0 0 0 1.664-.664 3.385 3.385 0 0 0 1.133-1.21c.278-.498.417-1.114.417-1.847 0-.532-.08-.998-.238-1.398a3.266 3.266 0 0 0-.688-1.068 5.04 5.04 0 0 0-1.078-.839 11.533 11.533 0 0 0-1.416-.7c-.386-.16-.731-.314-1.037-.464a5.266 5.266 0 0 1-.78-.458 1.996 1.996 0 0 1-.494-.495 1.042 1.042 0 0 1-.174-.591c0-.202.051-.384.155-.546.104-.162.251-.3.44-.417.19-.116.422-.206.697-.27.276-.064.581-.096.918-.096a6.124 6.124 0 0 1 1.596.225c.274.075.542.172.802.288.26.116.5.25.72.403v-2.74a7.16 7.16 0 0 0-1.463-.38 11.918 11.918 0 0 0-1.82-.125c-.697 0-1.358.075-1.981.225a5.037 5.037 0 0 0-1.646.701 3.503 3.503 0 0 0-1.124 1.215c-.275.492-.412 1.08-.412 1.764 0 .874.252 1.62.756 2.237.505.617 1.27 1.14 2.297 1.567.404.165.78.327 1.128.486.349.159.65.324.903.495.254.171.454.357.601.56.147.2.22.43.22.687 0 .19-.046.365-.137.527a1.22 1.22 0 0 1-.418.421c-.186.12-.418.213-.697.28-.278.067-.603.1-.976.1a5.638 5.638 0 0 1-3.622-1.338Zm-4.93-7.227h3.762v-2.407H6.914v2.407h3.745v10.718h2.98V16.645Z" clip-rule="evenodd"/></g><defs><clipPath id="a"><path fill="#fff" d="M0 0h30v30H0z"/></clipPath></defs></svg>