<svg xmlns="http://www.w3.org/2000/svg" width="30" height="30" fill="none"><g clip-path="url(#a)"><path fill="url(#b)" d="M29.9 4.429 15.809 29.53a.767.767 0 0 1-1.334.006L.102 4.43a.764.764 0 0 1 .8-1.129L15.01 5.814c.09.016.182.016.272 0l13.813-2.508a.764.764 0 0 1 .806 1.123Z"/><path fill="url(#c)" d="M21.73.007 11.302 2.043a.382.382 0 0 0-.31.352l-.64 10.792a.383.383 0 0 0 .468.395l2.903-.668a.382.382 0 0 1 .461.448l-.862 4.208a.382.382 0 0 0 .486.441l1.794-.542a.382.382 0 0 1 .486.442l-1.37 6.61c-.087.413.466.638.696.284l.154-.237 8.498-16.893a.382.382 0 0 0-.415-.546l-2.99.575a.382.382 0 0 1-.44-.48L22.172.486a.382.382 0 0 0-.442-.48Z"/></g><defs><linearGradient id="b" x1="-.248" x2="14.874" y1="5.327" y2="25.944" gradientUnits="userSpaceOnUse"><stop stop-color="#41D1FF"/><stop offset="1" stop-color="#BD34FE"/></linearGradient><linearGradient id="c" x1="16.317" x2="19.42" y1=".56" y2="21.928" gradientUnits="userSpaceOnUse"><stop stop-color="#FFEA83"/><stop offset=".083" stop-color="#FFDD35"/><stop offset="1" stop-color="#FFA800"/></linearGradient><clipPath id="a"><path fill="#fff" d="M0 0h30v30H0z"/></clipPath></defs></svg>