<svg xmlns="http://www.w3.org/2000/svg" width="30" height="30" fill="none"><path fill-rule="evenodd" d="M20.415 17.382l-2.03-.967c-.272-.099-.47-.149-.669.149s-.768.967-.941 1.165-.347.223-.644.074-1.255-.462-2.39-1.475c-.883-.788-1.48-1.761-1.653-2.059s-.019-.458.13-.607c.134-.133.297-.347.446-.521s.198-.298.297-.496.05-.372-.025-.521-.668-1.611-.916-2.206c-.241-.579-.486-.501-.669-.51l-.569-.01c-.198 0-.52.074-.793.372s-1.04 1.017-1.04 2.479 1.065 2.876 1.213 3.074 2.095 3.2 5.076 4.487c.709.306 1.262.489 1.694.626.712.226 1.36.194 1.872.118.571-.085 1.758-.719 2.006-1.413s.248-1.289.173-1.413-.272-.198-.57-.347zm-5.422 7.403h-.004a9.87 9.87 0 0 1-5.031-1.378l-.361-.214-3.741.981.999-3.648-.235-.374a9.86 9.86 0 0 1-1.511-5.26c.002-5.45 4.437-9.884 9.889-9.884 2.64.001 5.122 1.03 6.988 2.899s2.893 4.352 2.892 6.993c-.002 5.451-4.436 9.885-9.885 9.885zm8.413-18.298C21.16 4.24 18.174 3.001 14.993 3 8.437 3 3.102 8.335 3.1 14.892a11.87 11.87 0 0 0 1.587 5.946L3 27l6.304-1.654a11.88 11.88 0 0 0 5.683 1.447h.005c6.554 0 11.89-5.335 11.893-11.892a11.82 11.82 0 0 0-3.48-8.414" fill="currentColor"/></svg>